<?xml version="1.0" encoding="UTF-8" standalone="no"?>
<!DOCTYPE svg PUBLIC "-//W3C//DTD SVG 1.1//EN"
 "http://www.w3.org/Graphics/SVG/1.1/DTD/svg11.dtd">
<!-- Generated by graphviz version 2.30.1 (20170916.1124)
 -->
<!-- Title: tut::CharmTimer::CharmTimer Pages: 1 -->
<!--zoomable 100 -->
<svg id="main" version="1.1" xmlns="http://www.w3.org/2000/svg" xmlns:xlink="http://www.w3.org/1999/xlink" xml:space="preserve" onload="init(evt)">
<style type="text/css"><![CDATA[
.edge:hover path { stroke: red; }
.edge:hover polygon { stroke: red; fill: red; }
]]></style>
<script type="text/javascript"><![CDATA[
var edges = document.getElementsByTagName('g');
if (edges && edges.length) {
  for (var i=0;i<edges.length;i++) {
    if (edges[i].id.substr(0,4)=='edge') {
      edges[i].setAttribute('class','edge');
    }
  }
}
]]></script>
        <defs>
                <circle id="rim" cx="0" cy="0" r="7"/>
                <circle id="rim2" cx="0" cy="0" r="3.5"/>
                <g id="zoomPlus">
                        <use xlink:href="#rim" fill="#404040">
                                <set attributeName="fill" to="#808080" begin="zoomplus.mouseover" end="zoomplus.mouseout"/>
                        </use>
                        <path d="M-4,0h8M0,-4v8" fill="none" stroke="white" stroke-width="1.5" pointer-events="none"/>
                </g>
                <g id="zoomMin">
                        <use xlink:href="#rim" fill="#404040">
                                <set attributeName="fill" to="#808080" begin="zoomminus.mouseover" end="zoomminus.mouseout"/>
                        </use>
                        <path d="M-4,0h8" fill="none" stroke="white" stroke-width="1.5" pointer-events="none"/>
                </g>
                <g id="dirArrow">
                        <path fill="none" stroke="white" stroke-width="1.5" d="M0,-3.0v7 M-2.5,-0.5L0,-3.0L2.5,-0.5"/>
                </g>
               <g id="resetDef">
                       <use xlink:href="#rim2" fill="#404040">
                               <set attributeName="fill" to="#808080" begin="reset.mouseover" end="reset.mouseout"/>
                       </use>
               </g>
        </defs>

<script type="text/javascript">
var viewWidth = 612;
var viewHeight = 100;
var sectionId = 'dynsection-1';
</script>
<script xlink:href="svgpan.js"/>
<svg id="graph" class="graph">
<g id="viewport">
<title>tut::CharmTimer::CharmTimer</title>
<!-- Node0 -->
<g id="node1" class="node"><title>Node0</title>
<polygon fill="#bfbfbf" stroke="black" points="0.5,-55 0.5,-73 153.5,-73 153.5,-55 0.5,-55"/>
<text text-anchor="middle" x="77" y="-61.8" font-family="sans-serif" font-size="9.00">tut::CharmTimer::CharmTimer</text>
</g>
<!-- Node1 -->
<g id="node2" class="node"><title>Node1</title>
<g id="a_node2"><a xlink:href="namespacetk.html#a2e002561a68875b091a264eb2a1e5f6c" target="_top" xlink:title="tk::cref_find">
<polygon fill="none" stroke="black" points="318.5,-74 318.5,-92 389.5,-92 389.5,-74 318.5,-74"/>
<text text-anchor="middle" x="354" y="-80.8" font-family="sans-serif" font-size="9.00">tk::cref_find</text>
</a>
</g>
</g>
<!-- Node0&#45;&gt;Node1 -->
<g id="edge1" class="edge"><title>Node0&#45;&gt;Node1</title>
<path fill="none" stroke="midnightblue" d="M124.123,-73.0435C144.265,-76.5693 168.214,-80.1933 190,-82 229.826,-85.3029 275.314,-85.2662 308.098,-84.5692"/>
<polygon fill="midnightblue" stroke="midnightblue" points="308.36,-88.064 318.273,-84.3231 308.191,-81.066 308.36,-88.064"/>
</g>
<!-- Node2 -->
<g id="node3" class="node"><title>Node2</title>
<g id="a_node3"><a xlink:href="classtk_1_1_timer.html#a569d68d17038fa38b83d5bb229500c40" target="_top" xlink:title="tk::Timer::dsec">
<polygon fill="none" stroke="black" points="190,-18 190,-36 276,-36 276,-18 190,-18"/>
<text text-anchor="middle" x="233" y="-24.8" font-family="sans-serif" font-size="9.00">tk::Timer::dsec</text>
</a>
</g>
</g>
<!-- Node0&#45;&gt;Node2 -->
<g id="edge2" class="edge"><title>Node0&#45;&gt;Node2</title>
<path fill="none" stroke="midnightblue" d="M115.673,-54.9488C136.445,-49.9581 162.436,-43.7134 184.579,-38.3933"/>
<polygon fill="midnightblue" stroke="midnightblue" points="185.544,-41.7612 194.45,-36.0218 183.909,-34.9549 185.544,-41.7612"/>
</g>
<!-- Node9 -->
<g id="node10" class="node"><title>Node9</title>
<g id="a_node10"><a xlink:href="namespacetk.html#ab2aac5f0fd93d5119cfe50a39f3515c9" target="_top" xlink:title="tk::ref_find">
<polygon fill="none" stroke="black" points="200,-55 200,-73 266,-73 266,-55 200,-55"/>
<text text-anchor="middle" x="233" y="-61.8" font-family="sans-serif" font-size="9.00">tk::ref_find</text>
</a>
</g>
</g>
<!-- Node0&#45;&gt;Node9 -->
<g id="edge9" class="edge"><title>Node0&#45;&gt;Node9</title>
<path fill="none" stroke="midnightblue" d="M153.647,-64C165.982,-64 178.364,-64 189.526,-64"/>
<polygon fill="midnightblue" stroke="midnightblue" points="189.812,-67.5001 199.812,-64 189.812,-60.5001 189.812,-67.5001"/>
</g>
<!-- Node3 -->
<g id="node4" class="node"><title>Node3</title>
<g id="a_node4"><a xlink:href="classtk_1_1_timer.html#adb5da256a75c55e2c8a87b6a5f550987" target="_top" xlink:title="Estimate time for accomplishment. ">
<polygon fill="none" stroke="black" points="314.5,-37 314.5,-55 393.5,-55 393.5,-37 314.5,-37"/>
<text text-anchor="middle" x="354" y="-43.8" font-family="sans-serif" font-size="9.00">tk::Timer::eta</text>
</a>
</g>
</g>
<!-- Node2&#45;&gt;Node3 -->
<g id="edge3" class="edge"><title>Node2&#45;&gt;Node3</title>
<path fill="none" stroke="midnightblue" d="M276.29,-33.7522C285.415,-35.2091 295.131,-36.7604 304.473,-38.252"/>
<polygon fill="midnightblue" stroke="midnightblue" points="303.991,-41.7193 314.418,-39.8399 305.095,-34.8069 303.991,-41.7193"/>
</g>
<!-- Node8 -->
<g id="node9" class="node"><title>Node8</title>
<g id="a_node9"><a xlink:href="classtk_1_1_timer.html#af0455232fed13986a17836ffb340ec52" target="_top" xlink:title="tk::Timer::hms">
<polygon fill="none" stroke="black" points="312.5,-0 312.5,-18 395.5,-18 395.5,-0 312.5,-0"/>
<text text-anchor="middle" x="354" y="-6.8" font-family="sans-serif" font-size="9.00">tk::Timer::hms</text>
</a>
</g>
</g>
<!-- Node2&#45;&gt;Node8 -->
<g id="edge8" class="edge"><title>Node2&#45;&gt;Node8</title>
<path fill="none" stroke="midnightblue" d="M276.29,-20.6032C284.741,-19.3249 293.698,-17.97 302.396,-16.6543"/>
<polygon fill="midnightblue" stroke="midnightblue" points="303.078,-20.0911 312.442,-15.1348 302.031,-13.1698 303.078,-20.0911"/>
</g>
<!-- Node4 -->
<g id="node5" class="node"><title>Node4</title>
<g id="a_node5"><a xlink:href="namespacetk.html#afd730d099e698f124362ef8c01483e0f" target="_top" xlink:title="tk::min">
<polygon fill="none" stroke="black" points="432,-37 432,-55 480,-55 480,-37 432,-37"/>
<text text-anchor="middle" x="456" y="-43.8" font-family="sans-serif" font-size="9.00">tk::min</text>
</a>
</g>
</g>
<!-- Node3&#45;&gt;Node4 -->
<g id="edge4" class="edge"><title>Node3&#45;&gt;Node4</title>
<path fill="none" stroke="midnightblue" d="M393.663,-46C402.906,-46 412.696,-46 421.675,-46"/>
<polygon fill="midnightblue" stroke="midnightblue" points="421.762,-49.5001 431.762,-46 421.762,-42.5001 421.762,-49.5001"/>
</g>
<!-- Node5 -->
<g id="node6" class="node"><title>Node5</title>
<g id="a_node6"><a xlink:href="classtk_1_1_data.html#aef8c7ba846481dfd2d6576ac9f2394b7" target="_top" xlink:title="tk::Data::data">
<polygon fill="none" stroke="black" points="519,-74 519,-92 601,-92 601,-74 519,-74"/>
<text text-anchor="middle" x="560" y="-80.8" font-family="sans-serif" font-size="9.00">tk::Data::data</text>
</a>
</g>
</g>
<!-- Node4&#45;&gt;Node5 -->
<g id="edge5" class="edge"><title>Node4&#45;&gt;Node5</title>
<path fill="none" stroke="midnightblue" d="M480.145,-54.3959C493.231,-59.1425 509.845,-65.1694 524.446,-70.4657"/>
<polygon fill="midnightblue" stroke="midnightblue" points="523.57,-73.8711 534.164,-73.9909 525.957,-67.2906 523.57,-73.8711"/>
</g>
<!-- Node6 -->
<g id="node7" class="node"><title>Node6</title>
<g id="a_node7"><a xlink:href="classtk_1_1_data.html#ac8de429b794cc8700738afe2fd68d7d4" target="_top" xlink:title="tk::Data::nprop">
<polygon fill="none" stroke="black" points="516,-37 516,-55 604,-55 604,-37 516,-37"/>
<text text-anchor="middle" x="560" y="-43.8" font-family="sans-serif" font-size="9.00">tk::Data::nprop</text>
</a>
</g>
</g>
<!-- Node4&#45;&gt;Node6 -->
<g id="edge6" class="edge"><title>Node4&#45;&gt;Node6</title>
<path fill="none" stroke="midnightblue" d="M480.145,-46C487.832,-46 496.737,-46 505.736,-46"/>
<polygon fill="midnightblue" stroke="midnightblue" points="505.877,-49.5001 515.877,-46 505.877,-42.5001 505.877,-49.5001"/>
</g>
<!-- Node7 -->
<g id="node8" class="node"><title>Node7</title>
<g id="a_node8"><a xlink:href="classtk_1_1_data.html#a0e41c2b27307c6338b5a3dab688f8e80" target="_top" xlink:title="tk::Data::nunk">
<polygon fill="none" stroke="black" points="518.5,-0 518.5,-18 601.5,-18 601.5,-0 518.5,-0"/>
<text text-anchor="middle" x="560" y="-6.8" font-family="sans-serif" font-size="9.00">tk::Data::nunk</text>
</a>
</g>
</g>
<!-- Node4&#45;&gt;Node7 -->
<g id="edge7" class="edge"><title>Node4&#45;&gt;Node7</title>
<path fill="none" stroke="midnightblue" d="M480.145,-37.6041C493.231,-32.8575 509.845,-26.8306 524.446,-21.5343"/>
<polygon fill="midnightblue" stroke="midnightblue" points="525.957,-24.7094 534.164,-18.0091 523.57,-18.1289 525.957,-24.7094"/>
</g>
<!-- Node9&#45;&gt;Node1 -->
<g id="edge10" class="edge"><title>Node9&#45;&gt;Node1</title>
<path fill="none" stroke="midnightblue" d="M266.203,-69.1417C279.164,-71.2111 294.331,-73.6327 308.329,-75.8677"/>
<polygon fill="midnightblue" stroke="midnightblue" points="307.84,-79.3338 318.267,-77.4543 308.944,-72.4214 307.84,-79.3338"/>
</g>
</g>
</svg>
        <g id="navigator" transform="translate(0 0)" fill="#404254">
                <rect fill="#f2f5e9" fill-opacity="0.5" stroke="#606060" stroke-width=".5" x="0" y="0" width="60" height="60"/>
                <use id="zoomplus" xlink:href="#zoomPlus" x="17" y="9" onmousedown="handleZoom(evt,'in')"/>
                <use id="zoomminus" xlink:href="#zoomMin" x="42" y="9" onmousedown="handleZoom(evt,'out')"/>
                <use id="reset" xlink:href="#resetDef" x="30" y="36" onmousedown="handleReset()"/>
                <g id="arrowUp" xlink:href="#dirArrow" transform="translate(30 24)" onmousedown="handlePan(0,-1)">
                  <use xlink:href="#rim" fill="#404040">
                        <set attributeName="fill" to="#808080" begin="arrowUp.mouseover" end="arrowUp.mouseout"/>
                  </use>
                  <path fill="none" stroke="white" stroke-width="1.5" d="M0,-3.0v7 M-2.5,-0.5L0,-3.0L2.5,-0.5"/>
                </g>
                <g id="arrowRight" xlink:href="#dirArrow" transform="rotate(90) translate(36 -43)" onmousedown="handlePan(1,0)">
                  <use xlink:href="#rim" fill="#404040">
                        <set attributeName="fill" to="#808080" begin="arrowRight.mouseover" end="arrowRight.mouseout"/>
                  </use>
                  <path fill="none" stroke="white" stroke-width="1.5" d="M0,-3.0v7 M-2.5,-0.5L0,-3.0L2.5,-0.5"/>
                </g>
                <g id="arrowDown" xlink:href="#dirArrow" transform="rotate(180) translate(-30 -48)" onmousedown="handlePan(0,1)">
                  <use xlink:href="#rim" fill="#404040">
                        <set attributeName="fill" to="#808080" begin="arrowDown.mouseover" end="arrowDown.mouseout"/>
                  </use>
                  <path fill="none" stroke="white" stroke-width="1.5" d="M0,-3.0v7 M-2.5,-0.5L0,-3.0L2.5,-0.5"/>
                </g>
                <g id="arrowLeft" xlink:href="#dirArrow" transform="rotate(270) translate(-36 17)" onmousedown="handlePan(-1,0)">
                  <use xlink:href="#rim" fill="#404040">
                        <set attributeName="fill" to="#808080" begin="arrowLeft.mouseover" end="arrowLeft.mouseout"/>
                  </use>
                  <path fill="none" stroke="white" stroke-width="1.5" d="M0,-3.0v7 M-2.5,-0.5L0,-3.0L2.5,-0.5"/>
                </g>
        </g>
        <svg viewBox="0 0 15 15" width="100%" height="30px" preserveAspectRatio="xMaxYMin meet">
         <g id="arrow_out" transform="scale(0.3 0.3)">
          <a xlink:href="classtut_1_1_charm_timer_a6c269f3a240945c76ac9d9ecdf8c9bcd_cgraph_org.svg" target="_base">
           <rect id="button" ry="5" rx="5" y="6" x="6" height="38" width="38"
                fill="#f2f5e9" fill-opacity="0.5" stroke="#606060" stroke-width="1.0"/>
           <path id="arrow"
             d="M 11.500037,31.436501 C 11.940474,20.09759 22.043105,11.32322 32.158766,21.979434 L 37.068811,17.246167 C 37.068811,17.246167 37.088388,32 37.088388,32 L 22.160133,31.978069 C 22.160133,31.978069 26.997745,27.140456 26.997745,27.140456 C 18.528582,18.264221 13.291696,25.230495 11.500037,31.436501 z"
             style="fill:#404040;"/>
          </a>
         </g>
        </svg>
</svg>
