<?xml version="1.0" encoding="UTF-8" standalone="no"?>
<!DOCTYPE svg PUBLIC "-//W3C//DTD SVG 1.1//EN"
 "http://www.w3.org/Graphics/SVG/1.1/DTD/svg11.dtd">
<!-- Generated by graphviz version 2.30.1 (20170916.1124)
 -->
<!-- Title: walker::DiffEqStack::createDiffEq Pages: 1 -->
<svg width="244pt" height="63pt"
 viewBox="0.00 0.00 244.00 63.00" xmlns="http://www.w3.org/2000/svg" xmlns:xlink="http://www.w3.org/1999/xlink">
<g id="graph0" class="graph" transform="scale(1 1) rotate(0) translate(4 59)">
<title>walker::DiffEqStack::createDiffEq</title>
<!-- Node16 -->
<g id="node1" class="node"><title>Node16</title>
<g id="a_node1"><a xlink:title="Instantiate a differential equation object.">
<polygon fill="#bfbfbf" stroke="black" points="0,-13 0,-41 106,-41 106,-13 0,-13"/>
<text text-anchor="start" x="8" y="-29.8" font-family="sans-serif" font-size="9.00">walker::DiffEqStack</text>
<text text-anchor="middle" x="53" y="-19.8" font-family="sans-serif" font-size="9.00">::createDiffEq</text>
</a>
</g>
</g>
<!-- Node17 -->
<g id="node2" class="node"><title>Node17</title>
<g id="a_node2"><a xlink:href="classtk_1_1_control.html#a85c14acef1b9de96946fcf2ab7c08721" target="_top" xlink:title="Const&#45;ref accessor to single element at 1st level.">
<polygon fill="none" stroke="black" points="145.5,-37 145.5,-55 232.5,-55 232.5,-37 145.5,-37"/>
<text text-anchor="middle" x="189" y="-43.8" font-family="sans-serif" font-size="9.00">tk::Control::get</text>
</a>
</g>
</g>
<!-- Node16&#45;&gt;Node17 -->
<g id="edge1" class="edge"><title>Node16&#45;&gt;Node17</title>
<path fill="none" stroke="midnightblue" d="M106.192,-34.4003C115.69,-35.747 125.606,-37.1531 135.123,-38.5026"/>
<polygon fill="midnightblue" stroke="midnightblue" points="134.864,-42.0007 145.256,-39.9393 135.847,-35.07 134.864,-42.0007"/>
</g>
<!-- Node18 -->
<g id="node3" class="node"><title>Node18</title>
<g id="a_node3"><a xlink:href="classtk_1_1_toggle.html#a8426c02c08b7d09aae545bbd78bc1e14" target="_top" xlink:title=" ">
<polygon fill="none" stroke="black" points="142,-0 142,-18 236,-18 236,-0 142,-0"/>
<text text-anchor="middle" x="189" y="-6.8" font-family="sans-serif" font-size="9.00">tk::Toggle::name</text>
</a>
</g>
</g>
<!-- Node16&#45;&gt;Node18 -->
<g id="edge2" class="edge"><title>Node16&#45;&gt;Node18</title>
<path fill="none" stroke="midnightblue" d="M106.192,-19.9892C114.551,-18.8663 123.233,-17.7 131.684,-16.5649"/>
<polygon fill="midnightblue" stroke="midnightblue" points="132.393,-20.0011 141.838,-15.2009 131.461,-13.0634 132.393,-20.0011"/>
</g>
</g>
</svg>
