<?xml version="1.0" encoding="UTF-8" standalone="no"?>
<!DOCTYPE svg PUBLIC "-//W3C//DTD SVG 1.1//EN"
 "http://www.w3.org/Graphics/SVG/1.1/DTD/svg11.dtd">
<!-- Generated by graphviz version 2.38.0 (20140413.2041)
 -->
<!-- Title: rngtest::TestU01Suite::TestU01Suite Pages: 1 -->
<svg width="754pt" height="432pt"
 viewBox="0.00 0.00 754.00 432.00" xmlns="http://www.w3.org/2000/svg" xmlns:xlink="http://www.w3.org/1999/xlink">
<g id="graph0" class="graph" transform="scale(1 1) rotate(0) translate(4 428)">
<title>rngtest::TestU01Suite::TestU01Suite</title>
<!-- Node0 -->
<g id="node1" class="node"><title>Node0</title>
<polygon fill="#bfbfbf" stroke="black" points="0,-322.5 0,-350.5 119,-350.5 119,-322.5 0,-322.5"/>
<text text-anchor="start" x="8" y="-339.3" font-family="sans-serif" font-size="9.00">rngtest::TestU01Suite</text>
<text text-anchor="middle" x="59.5" y="-329.3" font-family="sans-serif" font-size="9.00">::TestU01Suite</text>
</g>
<!-- Node1 -->
<g id="node2" class="node"><title>Node1</title>
<g id="a_node2"><a xlink:href="classrngtest_1_1_test_u01_suite.html#a4db19c68337208e8eb649195a076c60e" target="_top" xlink:title="Collect number of p&#45;values from a test. ">
<polygon fill="none" stroke="black" points="155,-282.5 155,-310.5 274,-310.5 274,-282.5 155,-282.5"/>
<text text-anchor="start" x="163" y="-299.3" font-family="sans-serif" font-size="9.00">rngtest::TestU01Suite</text>
<text text-anchor="middle" x="214.5" y="-289.3" font-family="sans-serif" font-size="9.00">::npval</text>
</a>
</g>
</g>
<!-- Node0&#45;&gt;Node1 -->
<g id="edge1" class="edge"><title>Node0&#45;&gt;Node1</title>
<path fill="none" stroke="midnightblue" d="M114.442,-322.397C125.936,-319.393 138.175,-316.193 149.989,-313.104"/>
<polygon fill="midnightblue" stroke="midnightblue" points="150.998,-316.458 159.787,-310.543 149.227,-309.686 150.998,-316.458"/>
</g>
<!-- Node2 -->
<g id="node3" class="node"><title>Node2</title>
<g id="a_node3"><a xlink:href="classrngtest_1_1_test_u01_suite.html#a6738b31feae9156afc9b94281df80757" target="_top" xlink:title="Return number of statistical tests. ">
<polygon fill="none" stroke="black" points="481,-395.5 481,-423.5 600,-423.5 600,-395.5 481,-395.5"/>
<text text-anchor="start" x="489" y="-412.3" font-family="sans-serif" font-size="9.00">rngtest::TestU01Suite</text>
<text text-anchor="middle" x="540.5" y="-402.3" font-family="sans-serif" font-size="9.00">::ntest</text>
</a>
</g>
</g>
<!-- Node0&#45;&gt;Node2 -->
<g id="edge21" class="edge"><title>Node0&#45;&gt;Node2</title>
<path fill="none" stroke="midnightblue" d="M119.235,-345.451C208.056,-358.988 376.18,-384.61 470.636,-399.005"/>
<polygon fill="midnightblue" stroke="midnightblue" points="470.247,-402.486 480.66,-400.533 471.302,-395.566 470.247,-402.486"/>
</g>
<!-- Node1&#45;&gt;Node2 -->
<g id="edge2" class="edge"><title>Node1&#45;&gt;Node2</title>
<path fill="none" stroke="midnightblue" d="M255.88,-310.583C315.096,-331.236 425.406,-369.708 489.611,-392.101"/>
<polygon fill="midnightblue" stroke="midnightblue" points="488.527,-395.429 499.122,-395.417 490.832,-388.819 488.527,-395.429"/>
</g>
<!-- Node4 -->
<g id="node5" class="node"><title>Node4</title>
<g id="a_node5"><a xlink:href="classrngtest_1_1_r_n_g_test_print.html#a6cc55ab3d0df08fab59a055f3f055683" target="_top" xlink:title="rngtest::RNGTestPrint\l::battery">
<polygon fill="none" stroke="black" points="311,-33.5 311,-61.5 428,-61.5 428,-33.5 311,-33.5"/>
<text text-anchor="start" x="319" y="-50.3" font-family="sans-serif" font-size="9.00">rngtest::RNGTestPrint</text>
<text text-anchor="middle" x="369.5" y="-40.3" font-family="sans-serif" font-size="9.00">::battery</text>
</a>
</g>
</g>
<!-- Node1&#45;&gt;Node4 -->
<g id="edge4" class="edge"><title>Node1&#45;&gt;Node4</title>
<path fill="none" stroke="midnightblue" d="M224.164,-282.399C249.457,-241.237 323.359,-120.965 354.454,-70.3586"/>
<polygon fill="midnightblue" stroke="midnightblue" points="357.488,-72.1072 359.741,-61.7547 351.524,-68.4425 357.488,-72.1072"/>
</g>
<!-- Node7 -->
<g id="node8" class="node"><title>Node7</title>
<g id="a_node8"><a xlink:href="classrngtest_1_1_test_u01_suite.html#abc7c88c27ef47813d686a1291cb91973" target="_top" xlink:title="Collect test name(s) from a test. ">
<polygon fill="none" stroke="black" points="310,-240.5 310,-268.5 429,-268.5 429,-240.5 310,-240.5"/>
<text text-anchor="start" x="318" y="-257.3" font-family="sans-serif" font-size="9.00">rngtest::TestU01Suite</text>
<text text-anchor="middle" x="369.5" y="-247.3" font-family="sans-serif" font-size="9.00">::names</text>
</a>
</g>
</g>
<!-- Node1&#45;&gt;Node7 -->
<g id="edge7" class="edge"><title>Node1&#45;&gt;Node7</title>
<path fill="none" stroke="midnightblue" d="M266.872,-282.398C279.936,-278.812 294.099,-274.924 307.587,-271.221"/>
<polygon fill="midnightblue" stroke="midnightblue" points="308.546,-274.587 317.263,-268.565 306.693,-267.837 308.546,-274.587"/>
</g>
<!-- Node3 -->
<g id="node4" class="node"><title>Node3</title>
<g id="a_node4"><a xlink:href="classtk_1_1_control.html#a85c14acef1b9de96946fcf2ab7c08721" target="_top" xlink:title="Const&#45;ref accessor to single element at 1st level. ">
<polygon fill="none" stroke="black" points="655.5,-378.5 655.5,-396.5 742.5,-396.5 742.5,-378.5 655.5,-378.5"/>
<text text-anchor="middle" x="699" y="-385.3" font-family="sans-serif" font-size="9.00">tk::Control::get</text>
</a>
</g>
</g>
<!-- Node2&#45;&gt;Node3 -->
<g id="edge3" class="edge"><title>Node2&#45;&gt;Node3</title>
<path fill="none" stroke="midnightblue" d="M600.22,-401.245C614.877,-399.185 630.51,-396.987 644.878,-394.968"/>
<polygon fill="midnightblue" stroke="midnightblue" points="645.67,-398.391 655.085,-393.533 644.695,-391.459 645.67,-398.391"/>
</g>
<!-- Node5 -->
<g id="node6" class="node"><title>Node5</title>
<g id="a_node6"><a xlink:href="classtk_1_1_toggle.html#a4a62602fd062a3838a2703877edc8eeb" target="_top" xlink:title="Used to access template typename from outside. ">
<polygon fill="none" stroke="black" points="493,-0.5 493,-18.5 588,-18.5 588,-0.5 493,-0.5"/>
<text text-anchor="middle" x="540.5" y="-7.3" font-family="sans-serif" font-size="9.00">tk::Toggle::group</text>
</a>
</g>
</g>
<!-- Node4&#45;&gt;Node5 -->
<g id="edge5" class="edge"><title>Node4&#45;&gt;Node5</title>
<path fill="none" stroke="midnightblue" d="M428.188,-34.5288C448.137,-30.0431 470.311,-25.0572 489.584,-20.7236"/>
<polygon fill="midnightblue" stroke="midnightblue" points="490.383,-24.1315 499.372,-18.523 488.847,-17.3021 490.383,-24.1315"/>
</g>
<!-- Node6 -->
<g id="node7" class="node"><title>Node6</title>
<g id="a_node7"><a xlink:href="classtk_1_1_toggle.html#a8426c02c08b7d09aae545bbd78bc1e14" target="_top" xlink:title="tk::Toggle::name">
<polygon fill="none" stroke="black" points="652,-76.5 652,-94.5 746,-94.5 746,-76.5 652,-76.5"/>
<text text-anchor="middle" x="699" y="-83.3" font-family="sans-serif" font-size="9.00">tk::Toggle::name</text>
</a>
</g>
</g>
<!-- Node4&#45;&gt;Node6 -->
<g id="edge6" class="edge"><title>Node4&#45;&gt;Node6</title>
<path fill="none" stroke="midnightblue" d="M428.175,-51.9638C478.011,-56.1012 551.908,-62.9072 616,-71.5 624.333,-72.6173 633.117,-73.9504 641.716,-75.3435"/>
<polygon fill="midnightblue" stroke="midnightblue" points="641.249,-78.8138 651.687,-76.997 642.394,-71.9081 641.249,-78.8138"/>
</g>
<!-- Node7&#45;&gt;Node2 -->
<g id="edge9" class="edge"><title>Node7&#45;&gt;Node2</title>
<path fill="none" stroke="midnightblue" d="M382.849,-268.546C395.028,-282.611 413.949,-305.046 429,-325.5 446.315,-349.031 442.306,-362.102 465,-380.5 469.882,-384.458 475.368,-387.923 481.091,-390.945"/>
<polygon fill="midnightblue" stroke="midnightblue" points="479.699,-394.159 490.228,-395.339 482.732,-387.851 479.699,-394.159"/>
</g>
<!-- Node7&#45;&gt;Node3 -->
<g id="edge10" class="edge"><title>Node7&#45;&gt;Node3</title>
<path fill="none" stroke="midnightblue" d="M380.581,-268.7C396.144,-289.445 428.108,-327.617 465,-346.5 522.003,-375.678 595.996,-384.523 645.141,-386.979"/>
<polygon fill="midnightblue" stroke="midnightblue" points="645.095,-390.48 655.236,-387.411 645.395,-383.487 645.095,-390.48"/>
</g>
<!-- Node7&#45;&gt;Node6 -->
<g id="edge20" class="edge"><title>Node7&#45;&gt;Node6</title>
<path fill="none" stroke="midnightblue" d="M374.679,-240.225C384.573,-209.279 412.623,-136.252 465,-104.5 518.412,-72.1201 591.811,-71.8048 641.863,-76.7041"/>
<polygon fill="midnightblue" stroke="midnightblue" points="641.543,-80.1898 651.861,-77.7821 642.294,-73.2302 641.543,-80.1898"/>
</g>
<!-- Node8 -->
<g id="node9" class="node"><title>Node8</title>
<g id="a_node9"><a xlink:href="classrngtest_1_1_r_n_g_test_print.html#a5917a690125c6401aa681abade28ea90" target="_top" xlink:title="rngtest::RNGTestPrint\l::names">
<polygon fill="none" stroke="black" points="482,-188.5 482,-216.5 599,-216.5 599,-188.5 482,-188.5"/>
<text text-anchor="start" x="490" y="-205.3" font-family="sans-serif" font-size="9.00">rngtest::RNGTestPrint</text>
<text text-anchor="middle" x="540.5" y="-195.3" font-family="sans-serif" font-size="9.00">::names</text>
</a>
</g>
</g>
<!-- Node7&#45;&gt;Node8 -->
<g id="edge8" class="edge"><title>Node7&#45;&gt;Node8</title>
<path fill="none" stroke="midnightblue" d="M416.234,-240.428C437.088,-234.012 461.963,-226.358 483.888,-219.611"/>
<polygon fill="midnightblue" stroke="midnightblue" points="485.201,-222.869 493.73,-216.583 483.142,-216.179 485.201,-222.869"/>
</g>
<!-- Node9 -->
<g id="node10" class="node"><title>Node9</title>
<g id="a_node10"><a xlink:href="classtk_1_1_print.html#a2e8ce48bec4d0776ac12d4c0a8d4a2d0" target="_top" xlink:title="tk::Print::section">
<polygon fill="none" stroke="black" points="493.5,-151.5 493.5,-169.5 587.5,-169.5 587.5,-151.5 493.5,-151.5"/>
<text text-anchor="middle" x="540.5" y="-158.3" font-family="sans-serif" font-size="9.00">tk::Print::section</text>
</a>
</g>
</g>
<!-- Node7&#45;&gt;Node9 -->
<g id="edge11" class="edge"><title>Node7&#45;&gt;Node9</title>
<path fill="none" stroke="midnightblue" d="M383.851,-240.485C401.018,-223.298 432.507,-194.485 465,-178.5 470.798,-175.648 477.077,-173.23 483.447,-171.184"/>
<polygon fill="midnightblue" stroke="midnightblue" points="484.849,-174.421 493.473,-168.267 482.893,-167.7 484.849,-174.421"/>
</g>
<!-- Node10 -->
<g id="node11" class="node"><title>Node10</title>
<g id="a_node11"><a xlink:href="classtk_1_1_r_n_g_print.html#addcaaa75e0c7971224ac43dc4e975677" target="_top" xlink:title="Print all fields of RNGSSE parameters. ">
<polygon fill="none" stroke="black" points="465,-235.5 465,-253.5 616,-253.5 616,-235.5 465,-235.5"/>
<text text-anchor="middle" x="540.5" y="-242.3" font-family="sans-serif" font-size="9.00">tk::RNGPrint::RNGSSEParams</text>
</a>
</g>
</g>
<!-- Node7&#45;&gt;Node10 -->
<g id="edge12" class="edge"><title>Node7&#45;&gt;Node10</title>
<path fill="none" stroke="midnightblue" d="M429.134,-251.031C437.425,-250.54 446.084,-250.028 454.746,-249.515"/>
<polygon fill="midnightblue" stroke="midnightblue" points="455.119,-252.999 464.895,-248.915 454.705,-246.011 455.119,-252.999"/>
</g>
<!-- Node13 -->
<g id="node14" class="node"><title>Node13</title>
<g id="a_node14"><a xlink:href="classtk_1_1_print.html#af76e5891e1f0c5c908f9a6271e97362e" target="_top" xlink:title="tk::Print::endpart">
<polygon fill="none" stroke="black" points="492,-114.5 492,-132.5 589,-132.5 589,-114.5 492,-114.5"/>
<text text-anchor="middle" x="540.5" y="-121.3" font-family="sans-serif" font-size="9.00">tk::Print::endpart</text>
</a>
</g>
</g>
<!-- Node7&#45;&gt;Node13 -->
<g id="edge16" class="edge"><title>Node7&#45;&gt;Node13</title>
<path fill="none" stroke="midnightblue" d="M378.315,-240.186C392.337,-215.916 424.155,-166.863 465,-141.5 470.341,-138.183 476.249,-135.478 482.331,-133.271"/>
<polygon fill="midnightblue" stroke="midnightblue" points="483.513,-136.568 491.978,-130.197 481.387,-129.898 483.513,-136.568"/>
</g>
<!-- Node14 -->
<g id="node15" class="node"><title>Node14</title>
<g id="a_node15"><a xlink:href="classtk_1_1_print.html#a8079efac5c80b70a58acfa5cff8a55ee" target="_top" xlink:title="tk::Print::part">
<polygon fill="none" stroke="black" points="501,-319.5 501,-337.5 580,-337.5 580,-319.5 501,-319.5"/>
<text text-anchor="middle" x="540.5" y="-326.3" font-family="sans-serif" font-size="9.00">tk::Print::part</text>
</a>
</g>
</g>
<!-- Node7&#45;&gt;Node14 -->
<g id="edge17" class="edge"><title>Node7&#45;&gt;Node14</title>
<path fill="none" stroke="midnightblue" d="M391.029,-268.704C409.615,-281.004 438.12,-298.501 465,-309.5 473.258,-312.879 482.282,-315.789 491.11,-318.244"/>
<polygon fill="midnightblue" stroke="midnightblue" points="490.382,-321.671 500.943,-320.824 492.158,-314.9 490.382,-321.671"/>
</g>
<!-- Node15 -->
<g id="node16" class="node"><title>Node15</title>
<g id="a_node16"><a xlink:href="classrngtest_1_1_r_n_g_test_print.html#a07f2bb27a7a970434af6b1e8ff1025d3" target="_top" xlink:title="rngtest::RNGTestPrint\l::statshead">
<polygon fill="none" stroke="black" points="482,-272.5 482,-300.5 599,-300.5 599,-272.5 482,-272.5"/>
<text text-anchor="start" x="490" y="-289.3" font-family="sans-serif" font-size="9.00">rngtest::RNGTestPrint</text>
<text text-anchor="middle" x="540.5" y="-279.3" font-family="sans-serif" font-size="9.00">::statshead</text>
</a>
</g>
</g>
<!-- Node7&#45;&gt;Node15 -->
<g id="edge18" class="edge"><title>Node7&#45;&gt;Node15</title>
<path fill="none" stroke="midnightblue" d="M429.134,-265.602C442.866,-268.202 457.606,-270.993 471.701,-273.662"/>
<polygon fill="midnightblue" stroke="midnightblue" points="471.35,-277.158 481.826,-275.58 472.652,-270.28 471.35,-277.158"/>
</g>
<!-- Node10&#45;&gt;Node6 -->
<g id="edge15" class="edge"><title>Node10&#45;&gt;Node6</title>
<path fill="none" stroke="midnightblue" d="M597.464,-235.486C604.089,-232.937 610.455,-229.675 616,-225.5 657.687,-194.115 681.981,-134.842 692.225,-104.477"/>
<polygon fill="midnightblue" stroke="midnightblue" points="695.638,-105.295 695.369,-94.7033 688.975,-103.151 695.638,-105.295"/>
</g>
<!-- Node11 -->
<g id="node12" class="node"><title>Node11</title>
<g id="a_node12"><a xlink:href="classtk_1_1ctr_1_1_r_n_g.html#a5caac3d8f0a39c12421e4662f4a43ca1" target="_top" xlink:title="Return RNG library type based on RNG options enum. ">
<polygon fill="none" stroke="black" points="656,-200.5 656,-218.5 742,-218.5 742,-200.5 656,-200.5"/>
<text text-anchor="middle" x="699" y="-207.3" font-family="sans-serif" font-size="9.00">tk::ctr::RNG::lib</text>
</a>
</g>
</g>
<!-- Node10&#45;&gt;Node11 -->
<g id="edge13" class="edge"><title>Node10&#45;&gt;Node11</title>
<path fill="none" stroke="midnightblue" d="M581.803,-235.487C601.896,-230.993 626.394,-225.514 647.706,-220.748"/>
<polygon fill="midnightblue" stroke="midnightblue" points="648.567,-224.142 657.562,-218.544 647.039,-217.311 648.567,-224.142"/>
</g>
<!-- Node12 -->
<g id="node13" class="node"><title>Node12</title>
<g id="a_node13"><a xlink:href="namespacetut.html#ab099d6a452b3f5ffb435aa8b791166e1" target="_top" xlink:title="Define test group. ">
<polygon fill="none" stroke="black" points="662,-237.5 662,-255.5 736,-255.5 736,-237.5 662,-237.5"/>
<text text-anchor="middle" x="699" y="-244.3" font-family="sans-serif" font-size="9.00">tut::RNGSSE</text>
</a>
</g>
</g>
<!-- Node10&#45;&gt;Node12 -->
<g id="edge14" class="edge"><title>Node10&#45;&gt;Node12</title>
<path fill="none" stroke="midnightblue" d="M616.083,-245.453C628.135,-245.607 640.302,-245.763 651.439,-245.905"/>
<polygon fill="midnightblue" stroke="midnightblue" points="651.72,-249.409 661.764,-246.037 651.81,-242.409 651.72,-249.409"/>
</g>
<!-- Node16 -->
<g id="node17" class="node"><title>Node16</title>
<g id="a_node17"><a xlink:href="classtk_1_1_print.html#a346e0944ed2897d1c0529fb11e72a445" target="_top" xlink:title="tk::Print::raw">
<polygon fill="none" stroke="black" points="661,-277.5 661,-295.5 737,-295.5 737,-277.5 661,-277.5"/>
<text text-anchor="middle" x="699" y="-284.3" font-family="sans-serif" font-size="9.00">tk::Print::raw</text>
</a>
</g>
</g>
<!-- Node15&#45;&gt;Node16 -->
<g id="edge19" class="edge"><title>Node15&#45;&gt;Node16</title>
<path fill="none" stroke="midnightblue" d="M599.33,-286.5C616.187,-286.5 634.403,-286.5 650.54,-286.5"/>
<polygon fill="midnightblue" stroke="midnightblue" points="650.809,-290 660.809,-286.5 650.809,-283 650.809,-290"/>
</g>
</g>
</svg>
