<?xml version="1.0" encoding="UTF-8" standalone="no"?>
<!DOCTYPE svg PUBLIC "-//W3C//DTD SVG 1.1//EN"
 "http://www.w3.org/Graphics/SVG/1.1/DTD/svg11.dtd">
<!-- Generated by graphviz version 2.30.1 (20170916.1124)
 -->
<!-- Title: rngtest::TestU01Suite::npval Pages: 1 -->
<!--zoomable 448 -->
<svg id="main" version="1.1" xmlns="http://www.w3.org/2000/svg" xmlns:xlink="http://www.w3.org/1999/xlink" xml:space="preserve" onload="init(evt)">
<style type="text/css"><![CDATA[
.edge:hover path { stroke: red; }
.edge:hover polygon { stroke: red; fill: red; }
]]></style>
<script type="text/javascript"><![CDATA[
var edges = document.getElementsByTagName('g');
if (edges && edges.length) {
  for (var i=0;i<edges.length;i++) {
    if (edges[i].id.substr(0,4)=='edge') {
      edges[i].setAttribute('class','edge');
    }
  }
}
]]></script>
        <defs>
                <circle id="rim" cx="0" cy="0" r="7"/>
                <circle id="rim2" cx="0" cy="0" r="3.5"/>
                <g id="zoomPlus">
                        <use xlink:href="#rim" fill="#404040">
                                <set attributeName="fill" to="#808080" begin="zoomplus.mouseover" end="zoomplus.mouseout"/>
                        </use>
                        <path d="M-4,0h8M0,-4v8" fill="none" stroke="white" stroke-width="1.5" pointer-events="none"/>
                </g>
                <g id="zoomMin">
                        <use xlink:href="#rim" fill="#404040">
                                <set attributeName="fill" to="#808080" begin="zoomminus.mouseover" end="zoomminus.mouseout"/>
                        </use>
                        <path d="M-4,0h8" fill="none" stroke="white" stroke-width="1.5" pointer-events="none"/>
                </g>
                <g id="dirArrow">
                        <path fill="none" stroke="white" stroke-width="1.5" d="M0,-3.0v7 M-2.5,-0.5L0,-3.0L2.5,-0.5"/>
                </g>
               <g id="resetDef">
                       <use xlink:href="#rim2" fill="#404040">
                               <set attributeName="fill" to="#808080" begin="reset.mouseover" end="reset.mouseout"/>
                       </use>
               </g>
        </defs>

<script type="text/javascript">
var viewWidth = 762;
var viewHeight = 448;
var sectionId = 'dynsection-6';
</script>
<script xlink:href="svgpan.js"/>
<svg id="graph" class="graph">
<g id="viewport">
<title>rngtest::TestU01Suite::npval</title>
<!-- Node48 -->
<g id="node1" class="node"><title>Node48</title>
<g id="a_node1"><a xlink:title="Collect number of p&#45;values from a test.">
<polygon fill="#bfbfbf" stroke="black" points="0.5,-356 0.5,-384 119.5,-384 119.5,-356 0.5,-356"/>
<text text-anchor="start" x="8.5" y="-372.8" font-family="sans-serif" font-size="9.00">rngtest::TestU01Suite</text>
<text text-anchor="middle" x="60" y="-362.8" font-family="sans-serif" font-size="9.00">::npval</text>
</a>
</g>
</g>
<!-- Node49 -->
<g id="node2" class="node"><title>Node49</title>
<g id="a_node2"><a xlink:href="classrngtest_1_1_r_n_g_test_print.html#a6cc55ab3d0df08fab59a055f3f055683" target="_top" xlink:title=" ">
<polygon fill="none" stroke="black" points="338.5,-403 338.5,-431 455.5,-431 455.5,-403 338.5,-403"/>
<text text-anchor="start" x="346.5" y="-419.8" font-family="sans-serif" font-size="9.00">rngtest::RNGTestPrint</text>
<text text-anchor="middle" x="397" y="-409.8" font-family="sans-serif" font-size="9.00">::battery</text>
</a>
</g>
</g>
<!-- Node48&#45;&gt;Node49 -->
<g id="edge1" class="edge"><title>Node48&#45;&gt;Node49</title>
<path fill="none" stroke="midnightblue" d="M119.519,-378.715C131.58,-380.485 144.199,-382.319 156,-384 214.116,-392.277 280.201,-401.338 328.291,-407.868"/>
<polygon fill="midnightblue" stroke="midnightblue" points="327.891,-411.345 338.27,-409.222 328.832,-404.409 327.891,-411.345"/>
</g>
<!-- Node53 -->
<g id="node6" class="node"><title>Node53</title>
<g id="a_node6"><a xlink:href="classrngtest_1_1_test_u01_suite.html#abc7c88c27ef47813d686a1291cb91973" target="_top" xlink:title="Collect test name(s) from a test.">
<polygon fill="none" stroke="black" points="156.5,-195 156.5,-223 275.5,-223 275.5,-195 156.5,-195"/>
<text text-anchor="start" x="164.5" y="-211.8" font-family="sans-serif" font-size="9.00">rngtest::TestU01Suite</text>
<text text-anchor="middle" x="216" y="-201.8" font-family="sans-serif" font-size="9.00">::names</text>
</a>
</g>
</g>
<!-- Node48&#45;&gt;Node53 -->
<g id="edge5" class="edge"><title>Node48&#45;&gt;Node53</title>
<path fill="none" stroke="midnightblue" d="M74.3971,-355.994C101.36,-327.805 162.333,-264.061 194.401,-230.535"/>
<polygon fill="midnightblue" stroke="midnightblue" points="197.141,-232.734 201.524,-223.088 192.083,-227.895 197.141,-232.734"/>
</g>
<!-- Node56 -->
<g id="node9" class="node"><title>Node56</title>
<g id="a_node9"><a xlink:href="classrngtest_1_1_test_u01_suite.html#a6738b31feae9156afc9b94281df80757" target="_top" xlink:title="Return number of statistical tests.">
<polygon fill="none" stroke="black" points="337.5,-356 337.5,-384 456.5,-384 456.5,-356 337.5,-356"/>
<text text-anchor="start" x="345.5" y="-372.8" font-family="sans-serif" font-size="9.00">rngtest::TestU01Suite</text>
<text text-anchor="middle" x="397" y="-362.8" font-family="sans-serif" font-size="9.00">::ntest</text>
</a>
</g>
</g>
<!-- Node48&#45;&gt;Node56 -->
<g id="edge25" class="edge"><title>Node48&#45;&gt;Node56</title>
<path fill="none" stroke="midnightblue" d="M119.736,-370C177.564,-370 265.864,-370 327.004,-370"/>
<polygon fill="midnightblue" stroke="midnightblue" points="327.332,-373.5 337.332,-370 327.332,-366.5 327.332,-373.5"/>
</g>
<!-- Node50 -->
<g id="node3" class="node"><title>Node50</title>
<g id="a_node3"><a xlink:href="classtk_1_1_control.html#a85c14acef1b9de96946fcf2ab7c08721" target="_top" xlink:title="Const&#45;ref accessor to single element at 1st level.">
<polygon fill="none" stroke="black" points="522.5,-346 522.5,-364 609.5,-364 609.5,-346 522.5,-346"/>
<text text-anchor="middle" x="566" y="-352.8" font-family="sans-serif" font-size="9.00">tk::Control::get</text>
</a>
</g>
</g>
<!-- Node49&#45;&gt;Node50 -->
<g id="edge2" class="edge"><title>Node49&#45;&gt;Node50</title>
<path fill="none" stroke="midnightblue" d="M451.716,-402.962C461.864,-399.942 472.325,-396.573 482,-393 501.082,-385.952 521.896,-376.418 537.906,-368.663"/>
<polygon fill="midnightblue" stroke="midnightblue" points="539.762,-371.651 547.196,-364.103 536.677,-365.368 539.762,-371.651"/>
</g>
<!-- Node51 -->
<g id="node4" class="node"><title>Node51</title>
<g id="a_node4"><a xlink:href="classtk_1_1_toggle.html#a4a62602fd062a3838a2703877edc8eeb" target="_top" xlink:title="Used to access template typename from outside.">
<polygon fill="none" stroke="black" points="518.5,-422 518.5,-440 613.5,-440 613.5,-422 518.5,-422"/>
<text text-anchor="middle" x="566" y="-428.8" font-family="sans-serif" font-size="9.00">tk::Toggle::group</text>
</a>
</g>
</g>
<!-- Node49&#45;&gt;Node51 -->
<g id="edge3" class="edge"><title>Node49&#45;&gt;Node51</title>
<path fill="none" stroke="midnightblue" d="M455.94,-421.857C472.869,-423.276 491.349,-424.826 508.207,-426.239"/>
<polygon fill="midnightblue" stroke="midnightblue" points="508.207,-429.751 518.465,-427.099 508.792,-422.776 508.207,-429.751"/>
</g>
<!-- Node52 -->
<g id="node5" class="node"><title>Node52</title>
<g id="a_node5"><a xlink:href="classtk_1_1_toggle.html#a8426c02c08b7d09aae545bbd78bc1e14" target="_top" xlink:title=" ">
<polygon fill="none" stroke="black" points="655,-204 655,-222 749,-222 749,-204 655,-204"/>
<text text-anchor="middle" x="702" y="-210.8" font-family="sans-serif" font-size="9.00">tk::Toggle::name</text>
</a>
</g>
</g>
<!-- Node49&#45;&gt;Node52 -->
<g id="edge4" class="edge"><title>Node49&#45;&gt;Node52</title>
<path fill="none" stroke="midnightblue" d="M455.634,-418.137C502.505,-416.252 568.156,-406.91 614,-373 662.418,-337.187 686.948,-266.095 696.334,-232.045"/>
<polygon fill="midnightblue" stroke="midnightblue" points="699.811,-232.582 698.949,-222.022 693.038,-230.815 699.811,-232.582"/>
</g>
<!-- Node54 -->
<g id="node7" class="node"><title>Node54</title>
<g id="a_node7"><a xlink:href="classtk_1_1_print.html#af76e5891e1f0c5c908f9a6271e97362e" target="_top" xlink:title="Print end of a part.">
<polygon fill="none" stroke="black" points="348.5,-47 348.5,-65 445.5,-65 445.5,-47 348.5,-47"/>
<text text-anchor="middle" x="397" y="-53.8" font-family="sans-serif" font-size="9.00">tk::Print::endpart</text>
</a>
</g>
</g>
<!-- Node53&#45;&gt;Node54 -->
<g id="edge6" class="edge"><title>Node53&#45;&gt;Node54</title>
<path fill="none" stroke="midnightblue" d="M222.672,-194.909C234.666,-167.021 265.388,-104.829 312,-74 319.94,-68.7485 329.143,-64.9968 338.484,-62.3233"/>
<polygon fill="midnightblue" stroke="midnightblue" points="339.359,-65.7127 348.223,-59.91 337.675,-58.9182 339.359,-65.7127"/>
</g>
<!-- Node53&#45;&gt;Node50 -->
<g id="edge7" class="edge"><title>Node53&#45;&gt;Node50</title>
<path fill="none" stroke="midnightblue" d="M226.892,-223.027C242.46,-243.97 274.769,-283.074 312,-303 345.987,-321.19 448.436,-338.401 512.06,-347.744"/>
<polygon fill="midnightblue" stroke="midnightblue" points="511.908,-351.259 522.307,-349.23 512.913,-344.331 511.908,-351.259"/>
</g>
<!-- Node53&#45;&gt;Node52 -->
<g id="edge8" class="edge"><title>Node53&#45;&gt;Node52</title>
<path fill="none" stroke="midnightblue" d="M233.083,-223.232C250.924,-237.985 281.269,-260.108 312,-269 440.933,-306.307 485.228,-306.861 614,-269 640.709,-261.147 666.965,-242.278 683.528,-228.609"/>
<polygon fill="midnightblue" stroke="midnightblue" points="685.917,-231.172 691.256,-222.021 681.376,-225.844 685.917,-231.172"/>
</g>
<!-- Node55 -->
<g id="node8" class="node"><title>Node55</title>
<g id="a_node8"><a xlink:href="classrngtest_1_1_r_n_g_test_print.html#a5917a690125c6401aa681abade28ea90" target="_top" xlink:title=" ">
<polygon fill="none" stroke="black" points="338.5,-195 338.5,-223 455.5,-223 455.5,-195 338.5,-195"/>
<text text-anchor="start" x="346.5" y="-211.8" font-family="sans-serif" font-size="9.00">rngtest::RNGTestPrint</text>
<text text-anchor="middle" x="397" y="-201.8" font-family="sans-serif" font-size="9.00">::names</text>
</a>
</g>
</g>
<!-- Node53&#45;&gt;Node55 -->
<g id="edge9" class="edge"><title>Node53&#45;&gt;Node55</title>
<path fill="none" stroke="midnightblue" d="M275.611,-209C292.487,-209 311.034,-209 328.406,-209"/>
<polygon fill="midnightblue" stroke="midnightblue" points="328.478,-212.5 338.478,-209 328.478,-205.5 328.478,-212.5"/>
</g>
<!-- Node53&#45;&gt;Node56 -->
<g id="edge10" class="edge"><title>Node53&#45;&gt;Node56</title>
<path fill="none" stroke="midnightblue" d="M223.485,-223.138C236.487,-249.964 268.282,-308.47 312,-341 317.489,-345.084 323.596,-348.623 329.944,-351.684"/>
<polygon fill="midnightblue" stroke="midnightblue" points="328.808,-355.008 339.371,-355.834 331.628,-348.601 328.808,-355.008"/>
</g>
<!-- Node57 -->
<g id="node10" class="node"><title>Node57</title>
<g id="a_node10"><a xlink:href="classtk_1_1_print.html#a8079efac5c80b70a58acfa5cff8a55ee" target="_top" xlink:title=" ">
<polygon fill="none" stroke="black" points="357.5,-158 357.5,-176 436.5,-176 436.5,-158 357.5,-158"/>
<text text-anchor="middle" x="397" y="-164.8" font-family="sans-serif" font-size="9.00">tk::Print::part</text>
</a>
</g>
</g>
<!-- Node53&#45;&gt;Node57 -->
<g id="edge12" class="edge"><title>Node53&#45;&gt;Node57</title>
<path fill="none" stroke="midnightblue" d="M271.174,-194.952C284.5,-191.597 298.747,-188.093 312,-185 323.458,-182.326 335.831,-179.591 347.468,-177.086"/>
<polygon fill="midnightblue" stroke="midnightblue" points="348.414,-180.463 357.462,-174.951 346.952,-173.617 348.414,-180.463"/>
</g>
<!-- Node58 -->
<g id="node11" class="node"><title>Node58</title>
<g id="a_node11"><a xlink:href="classtk_1_1_r_n_g_print.html#ac955be023ce3bcd8de2d82c28035355c" target="_top" xlink:title="Print all fields of Random123 parameters.">
<polygon fill="none" stroke="black" points="312,-84 312,-102 482,-102 482,-84 312,-84"/>
<text text-anchor="middle" x="397" y="-90.8" font-family="sans-serif" font-size="9.00">tk::RNGPrint::Random123Params</text>
</a>
</g>
</g>
<!-- Node53&#45;&gt;Node58 -->
<g id="edge13" class="edge"><title>Node53&#45;&gt;Node58</title>
<path fill="none" stroke="midnightblue" d="M226.516,-194.766C241.823,-173.065 274.071,-132.018 312,-111 315.742,-108.926 319.701,-107.091 323.78,-105.467"/>
<polygon fill="midnightblue" stroke="midnightblue" points="325.206,-108.676 333.472,-102.049 322.877,-102.074 325.206,-108.676"/>
</g>
<!-- Node61 -->
<g id="node14" class="node"><title>Node61</title>
<g id="a_node14"><a xlink:href="classtk_1_1_r_n_g_print.html#addcaaa75e0c7971224ac43dc4e975677" target="_top" xlink:title="Print all fields of RNGSSE parameters.">
<polygon fill="none" stroke="black" points="321.5,-242 321.5,-260 472.5,-260 472.5,-242 321.5,-242"/>
<text text-anchor="middle" x="397" y="-248.8" font-family="sans-serif" font-size="9.00">tk::RNGPrint::RNGSSEParams</text>
</a>
</g>
</g>
<!-- Node53&#45;&gt;Node61 -->
<g id="edge18" class="edge"><title>Node53&#45;&gt;Node61</title>
<path fill="none" stroke="midnightblue" d="M274.236,-223.005C286.677,-226.008 299.773,-229.137 312,-232 322.812,-234.531 334.42,-237.193 345.452,-239.696"/>
<polygon fill="midnightblue" stroke="midnightblue" points="344.857,-243.15 355.383,-241.943 346.401,-236.323 344.857,-243.15"/>
</g>
<!-- Node63 -->
<g id="node16" class="node"><title>Node63</title>
<g id="a_node16"><a xlink:href="classtk_1_1_print.html#a2e8ce48bec4d0776ac12d4c0a8d4a2d0" target="_top" xlink:title=" ">
<polygon fill="none" stroke="black" points="350,-121 350,-139 444,-139 444,-121 350,-121"/>
<text text-anchor="middle" x="397" y="-127.8" font-family="sans-serif" font-size="9.00">tk::Print::section</text>
</a>
</g>
</g>
<!-- Node53&#45;&gt;Node63 -->
<g id="edge22" class="edge"><title>Node53&#45;&gt;Node63</title>
<path fill="none" stroke="midnightblue" d="M234.827,-194.741C253.145,-180.791 283.006,-159.95 312,-148 320.801,-144.372 330.436,-141.435 339.94,-139.069"/>
<polygon fill="midnightblue" stroke="midnightblue" points="340.8,-142.462 349.758,-136.805 339.227,-135.641 340.8,-142.462"/>
</g>
<!-- Node64 -->
<g id="node17" class="node"><title>Node64</title>
<g id="a_node17"><a xlink:href="classrngtest_1_1_r_n_g_test_print.html#a07f2bb27a7a970434af6b1e8ff1025d3" target="_top" xlink:title=" ">
<polygon fill="none" stroke="black" points="338.5,-0 338.5,-28 455.5,-28 455.5,-0 338.5,-0"/>
<text text-anchor="start" x="346.5" y="-16.8" font-family="sans-serif" font-size="9.00">rngtest::RNGTestPrint</text>
<text text-anchor="middle" x="397" y="-6.8" font-family="sans-serif" font-size="9.00">::statshead</text>
</a>
</g>
</g>
<!-- Node53&#45;&gt;Node64 -->
<g id="edge23" class="edge"><title>Node53&#45;&gt;Node64</title>
<path fill="none" stroke="midnightblue" d="M220.669,-194.958C230.006,-162.068 257.848,-79.6135 312,-37 317.069,-33.0115 322.78,-29.7136 328.78,-26.9868"/>
<polygon fill="midnightblue" stroke="midnightblue" points="330.4,-30.1087 338.394,-23.155 327.809,-23.6062 330.4,-30.1087"/>
</g>
<!-- Node56&#45;&gt;Node50 -->
<g id="edge11" class="edge"><title>Node56&#45;&gt;Node50</title>
<path fill="none" stroke="midnightblue" d="M456.878,-364.712C474.933,-363.09 494.675,-361.317 512.291,-359.734"/>
<polygon fill="midnightblue" stroke="midnightblue" points="512.741,-363.208 522.388,-358.827 512.115,-356.236 512.741,-363.208"/>
</g>
<!-- Node59 -->
<g id="node12" class="node"><title>Node59</title>
<g id="a_node12"><a xlink:href="classtk_1_1ctr_1_1_r_n_g.html#a5caac3d8f0a39c12421e4662f4a43ca1" target="_top" xlink:title="Return RNG library type based on RNG options enum.">
<polygon fill="none" stroke="black" points="523,-166 523,-184 609,-184 609,-166 523,-166"/>
<text text-anchor="middle" x="566" y="-172.8" font-family="sans-serif" font-size="9.00">tk::ctr::RNG::lib</text>
</a>
</g>
</g>
<!-- Node58&#45;&gt;Node59 -->
<g id="edge14" class="edge"><title>Node58&#45;&gt;Node59</title>
<path fill="none" stroke="midnightblue" d="M456.933,-102.119C465.548,-104.45 474.152,-107.363 482,-111 507.587,-122.858 532.614,-143.815 548.381,-158.508"/>
<polygon fill="midnightblue" stroke="midnightblue" points="546.089,-161.159 555.736,-165.539 550.926,-156.099 546.089,-161.159"/>
</g>
<!-- Node58&#45;&gt;Node52 -->
<g id="edge17" class="edge"><title>Node58&#45;&gt;Node52</title>
<path fill="none" stroke="midnightblue" d="M444.89,-102.03C457.045,-104.648 470.069,-107.7 482,-111 541.739,-127.522 561.612,-122.875 614,-156 633.393,-168.262 630.889,-180.303 650,-193 653.801,-195.525 657.969,-197.807 662.233,-199.847"/>
<polygon fill="midnightblue" stroke="midnightblue" points="661.049,-203.148 671.615,-203.929 663.841,-196.73 661.049,-203.148"/>
</g>
<!-- Node59&#45;&gt;Node52 -->
<g id="edge15" class="edge"><title>Node59&#45;&gt;Node52</title>
<path fill="none" stroke="midnightblue" d="M598.756,-184.005C616.814,-189.126 639.648,-195.602 659.153,-201.133"/>
<polygon fill="midnightblue" stroke="midnightblue" points="658.432,-204.566 669.007,-203.927 660.342,-197.832 658.432,-204.566"/>
</g>
<!-- Node60 -->
<g id="node13" class="node"><title>Node60</title>
<g id="a_node13"><a xlink:href="classtk_1_1ctr_1_1_r_n_g.html#a238ce675dc9b1a505f83998fe7ef6dc3" target="_top" xlink:title="Search for &#39;kw&#39; in &#39;str&#39;.">
<polygon fill="none" stroke="black" points="650.5,-166 650.5,-184 753.5,-184 753.5,-166 650.5,-166"/>
<text text-anchor="middle" x="702" y="-172.8" font-family="sans-serif" font-size="9.00">tk::ctr::RNG::found</text>
</a>
</g>
</g>
<!-- Node59&#45;&gt;Node60 -->
<g id="edge16" class="edge"><title>Node59&#45;&gt;Node60</title>
<path fill="none" stroke="midnightblue" d="M609.031,-175C618.817,-175 629.432,-175 639.857,-175"/>
<polygon fill="midnightblue" stroke="midnightblue" points="640.181,-178.5 650.181,-175 640.181,-171.5 640.181,-178.5"/>
</g>
<!-- Node61&#45;&gt;Node59 -->
<g id="edge19" class="edge"><title>Node61&#45;&gt;Node59</title>
<path fill="none" stroke="midnightblue" d="M456.343,-241.958C465.215,-239.414 474.052,-236.16 482,-232 501.23,-221.935 500.173,-211.381 518,-199 523.333,-195.296 529.316,-191.803 535.18,-188.689"/>
<polygon fill="midnightblue" stroke="midnightblue" points="536.845,-191.769 544.186,-184.13 533.683,-185.524 536.845,-191.769"/>
</g>
<!-- Node62 -->
<g id="node15" class="node"><title>Node62</title>
<g id="a_node15"><a xlink:href="namespacetut.html#ab099d6a452b3f5ffb435aa8b791166e1" target="_top" xlink:title="Define test group.">
<polygon fill="none" stroke="black" points="529,-242 529,-260 603,-260 603,-242 529,-242"/>
<text text-anchor="middle" x="566" y="-248.8" font-family="sans-serif" font-size="9.00">tut::RNGSSE</text>
</a>
</g>
</g>
<!-- Node61&#45;&gt;Node62 -->
<g id="edge20" class="edge"><title>Node61&#45;&gt;Node62</title>
<path fill="none" stroke="midnightblue" d="M472.708,-251C488.362,-251 504.432,-251 518.686,-251"/>
<polygon fill="midnightblue" stroke="midnightblue" points="518.712,-254.5 528.712,-251 518.712,-247.5 518.712,-254.5"/>
</g>
<!-- Node61&#45;&gt;Node52 -->
<g id="edge21" class="edge"><title>Node61&#45;&gt;Node52</title>
<path fill="none" stroke="midnightblue" d="M451.077,-241.969C471.907,-238.59 496.04,-234.876 518,-232 560.23,-226.469 608.114,-221.545 644.306,-218.096"/>
<polygon fill="midnightblue" stroke="midnightblue" points="645.038,-221.543 654.665,-217.119 644.381,-214.574 645.038,-221.543"/>
</g>
<!-- Node65 -->
<g id="node18" class="node"><title>Node65</title>
<g id="a_node18"><a xlink:href="classtk_1_1_print.html#a346e0944ed2897d1c0529fb11e72a445" target="_top" xlink:title=" ">
<polygon fill="none" stroke="black" points="528,-5 528,-23 604,-23 604,-5 528,-5"/>
<text text-anchor="middle" x="566" y="-11.8" font-family="sans-serif" font-size="9.00">tk::Print::raw</text>
</a>
</g>
</g>
<!-- Node64&#45;&gt;Node65 -->
<g id="edge24" class="edge"><title>Node64&#45;&gt;Node65</title>
<path fill="none" stroke="midnightblue" d="M455.94,-14C476.143,-14 498.556,-14 517.782,-14"/>
<polygon fill="midnightblue" stroke="midnightblue" points="517.808,-17.5001 527.808,-14 517.808,-10.5001 517.808,-17.5001"/>
</g>
</g>
</svg>
        <g id="navigator" transform="translate(0 0)" fill="#404254">
                <rect fill="#f2f5e9" fill-opacity="0.5" stroke="#606060" stroke-width=".5" x="0" y="0" width="60" height="60"/>
                <use id="zoomplus" xlink:href="#zoomPlus" x="17" y="9" onmousedown="handleZoom(evt,'in')"/>
                <use id="zoomminus" xlink:href="#zoomMin" x="42" y="9" onmousedown="handleZoom(evt,'out')"/>
                <use id="reset" xlink:href="#resetDef" x="30" y="36" onmousedown="handleReset()"/>
                <g id="arrowUp" xlink:href="#dirArrow" transform="translate(30 24)" onmousedown="handlePan(0,-1)">
                  <use xlink:href="#rim" fill="#404040">
                        <set attributeName="fill" to="#808080" begin="arrowUp.mouseover" end="arrowUp.mouseout"/>
                  </use>
                  <path fill="none" stroke="white" stroke-width="1.5" d="M0,-3.0v7 M-2.5,-0.5L0,-3.0L2.5,-0.5"/>
                </g>
                <g id="arrowRight" xlink:href="#dirArrow" transform="rotate(90) translate(36 -43)" onmousedown="handlePan(1,0)">
                  <use xlink:href="#rim" fill="#404040">
                        <set attributeName="fill" to="#808080" begin="arrowRight.mouseover" end="arrowRight.mouseout"/>
                  </use>
                  <path fill="none" stroke="white" stroke-width="1.5" d="M0,-3.0v7 M-2.5,-0.5L0,-3.0L2.5,-0.5"/>
                </g>
                <g id="arrowDown" xlink:href="#dirArrow" transform="rotate(180) translate(-30 -48)" onmousedown="handlePan(0,1)">
                  <use xlink:href="#rim" fill="#404040">
                        <set attributeName="fill" to="#808080" begin="arrowDown.mouseover" end="arrowDown.mouseout"/>
                  </use>
                  <path fill="none" stroke="white" stroke-width="1.5" d="M0,-3.0v7 M-2.5,-0.5L0,-3.0L2.5,-0.5"/>
                </g>
                <g id="arrowLeft" xlink:href="#dirArrow" transform="rotate(270) translate(-36 17)" onmousedown="handlePan(-1,0)">
                  <use xlink:href="#rim" fill="#404040">
                        <set attributeName="fill" to="#808080" begin="arrowLeft.mouseover" end="arrowLeft.mouseout"/>
                  </use>
                  <path fill="none" stroke="white" stroke-width="1.5" d="M0,-3.0v7 M-2.5,-0.5L0,-3.0L2.5,-0.5"/>
                </g>
        </g>
        <svg viewBox="0 0 15 15" width="100%" height="30px" preserveAspectRatio="xMaxYMin meet">
         <g id="arrow_out" transform="scale(0.3 0.3)">
          <a xlink:href="classrngtest_1_1_test_u01_suite_a4db19c68337208e8eb649195a076c60e_cgraph_org.svg" target="_base">
           <rect id="button" ry="5" rx="5" y="6" x="6" height="38" width="38"
                fill="#f2f5e9" fill-opacity="0.5" stroke="#606060" stroke-width="1.0"/>
           <path id="arrow"
             d="M 11.500037,31.436501 C 11.940474,20.09759 22.043105,11.32322 32.158766,21.979434 L 37.068811,17.246167 C 37.068811,17.246167 37.088388,32 37.088388,32 L 22.160133,31.978069 C 22.160133,31.978069 26.997745,27.140456 26.997745,27.140456 C 18.528582,18.264221 13.291696,25.230495 11.500037,31.436501 z"
             style="fill:#404040;"/>
          </a>
         </g>
        </svg>
</svg>
