<?xml version="1.0" encoding="UTF-8" standalone="no"?>
<!DOCTYPE svg PUBLIC "-//W3C//DTD SVG 1.1//EN"
 "http://www.w3.org/Graphics/SVG/1.1/DTD/svg11.dtd">
<!-- Generated by graphviz version 2.26.3 (20100126.1600)
 -->
<!-- Title: G Pages: 1 -->
<svg width="274pt" height="66pt"
 viewBox="0.00 0.00 274.00 66.00" xmlns="http://www.w3.org/2000/svg" xmlns:xlink="http://www.w3.org/1999/xlink">
<g id="graph1" class="graph" transform="scale(1 1) rotate(0) translate(4 62)">
<title>G</title>
<!-- Node1 -->
<g id="node1" class="node"><title>Node1</title>
<polygon fill="#bfbfbf" stroke="black" points="0.5,-19 0.5,-39 143.5,-39 143.5,-19 0.5,-19"/>
<text text-anchor="middle" x="72" y="-26.9" font-family="sans-serif" font-size="9.00">rngtest::TestU01Props::run</text>
</g>
<!-- Node2 -->
<g id="node3" class="node"><title>Node2</title>
<a xlink:href="classtk_1_1_timer.html#a08304f78d80271af5adc8115d6d55a93" target="_top" xlink:title="tk::Timer::dsec">
<polygon fill="none" stroke="black" points="180,-38 180,-58 266,-58 266,-38 180,-38"/>
<text text-anchor="middle" x="223" y="-45.9" font-family="sans-serif" font-size="9.00">tk::Timer::dsec</text>
</a>
</g>
<!-- Node1&#45;&gt;Node2 -->
<g id="edge2" class="edge"><title>Node1&#45;&gt;Node2</title>
<path fill="none" stroke="midnightblue" d="M143.52,-37.9992C152.3,-39.1039 161.151,-40.2177 169.598,-41.2805"/>
<polygon fill="midnightblue" stroke="midnightblue" points="169.309,-44.7717 179.668,-42.5476 170.183,-37.8265 169.309,-44.7717"/>
</g>
<!-- Node3 -->
<g id="node5" class="node"><title>Node3</title>
<a xlink:href="namespacetut.html#a714de5f526482debffbaebcbaa39e123" target="_top" xlink:title="Define test group.">
<polygon fill="none" stroke="black" points="195,-0 195,-20 251,-20 251,-0 195,-0"/>
<text text-anchor="middle" x="223" y="-7.9" font-family="sans-serif" font-size="9.00">tut::RNG</text>
</a>
</g>
<!-- Node1&#45;&gt;Node3 -->
<g id="edge4" class="edge"><title>Node1&#45;&gt;Node3</title>
<path fill="none" stroke="midnightblue" d="M143.52,-20.0008C157.694,-18.2173 172.055,-16.4103 184.598,-14.832"/>
<polygon fill="midnightblue" stroke="midnightblue" points="185.178,-18.2867 194.663,-13.5656 184.304,-11.3415 185.178,-18.2867"/>
</g>
</g>
</svg>
