<?xml version="1.0" encoding="UTF-8" standalone="no"?>
<!DOCTYPE svg PUBLIC "-//W3C//DTD SVG 1.1//EN"
 "http://www.w3.org/Graphics/SVG/1.1/DTD/svg11.dtd">
<!-- Generated by graphviz version 2.38.0 (20140413.2041)
 -->
<!-- Title: Graphical Class Hierarchy Pages: 1 -->
<svg width="271pt" height="222pt"
 viewBox="0.00 0.00 271.00 222.00" xmlns="http://www.w3.org/2000/svg" xmlns:xlink="http://www.w3.org/1999/xlink">
<g id="graph0" class="graph" transform="scale(1 1) rotate(0) translate(4 218)">
<title>Graphical Class Hierarchy</title>
<!-- Node0 -->
<g id="node1" class="node"><title>Node0</title>
<g id="a_node1"><a xlink:href="classtk_1_1_string_parser.html" target="_top" xlink:title="StringParser. ">
<polygon fill="none" stroke="black" points="0,-100.5 0,-118.5 89,-118.5 89,-100.5 0,-100.5"/>
<text text-anchor="middle" x="44.5" y="-107.3" font-family="sans-serif" font-size="9.00">tk::StringParser</text>
</a>
</g>
</g>
<!-- Node1 -->
<g id="node2" class="node"><title>Node1</title>
<g id="a_node2"><a xlink:href="classinciter_1_1_cmd_line_parser.html" target="_top" xlink:title="Command&#45;line parser for Inciter. ">
<polygon fill="none" stroke="black" points="133.5,-195.5 133.5,-213.5 254.5,-213.5 254.5,-195.5 133.5,-195.5"/>
<text text-anchor="middle" x="194" y="-202.3" font-family="sans-serif" font-size="9.00">inciter::CmdLineParser</text>
</a>
</g>
</g>
<!-- Node0&#45;&gt;Node1 -->
<g id="edge1" class="edge"><title>Node0&#45;&gt;Node1</title>
<path fill="none" stroke="midnightblue" d="M58.8759,-126.896C73.3213,-144.491 97.9299,-171.212 125,-186.5 131.486,-190.163 138.743,-193.103 146.033,-195.455"/>
<polygon fill="midnightblue" stroke="midnightblue" points="61.2601,-124.272 52.2891,-118.635 55.787,-128.636 61.2601,-124.272"/>
</g>
<!-- Node2 -->
<g id="node3" class="node"><title>Node2</title>
<g id="a_node3"><a xlink:href="classmeshconv_1_1_cmd_line_parser.html" target="_top" xlink:title="Command&#45;line parser for MeshConv. ">
<polygon fill="none" stroke="black" points="125,-158.5 125,-176.5 263,-176.5 263,-158.5 125,-158.5"/>
<text text-anchor="middle" x="194" y="-165.3" font-family="sans-serif" font-size="9.00">meshconv::CmdLineParser</text>
</a>
</g>
</g>
<!-- Node0&#45;&gt;Node2 -->
<g id="edge2" class="edge"><title>Node0&#45;&gt;Node2</title>
<path fill="none" stroke="midnightblue" d="M70.0801,-123.535C85.4917,-131.911 105.978,-142.286 125,-149.5 134.021,-152.921 143.95,-155.945 153.367,-158.49"/>
<polygon fill="midnightblue" stroke="midnightblue" points="71.6433,-120.4 61.1984,-118.625 68.2562,-126.526 71.6433,-120.4"/>
</g>
<!-- Node3 -->
<g id="node4" class="node"><title>Node3</title>
<g id="a_node4"><a xlink:href="classrngtest_1_1_cmd_line_parser.html" target="_top" xlink:title="Command&#45;line parser for RNGTest. ">
<polygon fill="none" stroke="black" points="131,-121.5 131,-139.5 257,-139.5 257,-121.5 131,-121.5"/>
<text text-anchor="middle" x="194" y="-128.3" font-family="sans-serif" font-size="9.00">rngtest::CmdLineParser</text>
</a>
</g>
</g>
<!-- Node0&#45;&gt;Node3 -->
<g id="edge3" class="edge"><title>Node0&#45;&gt;Node3</title>
<path fill="none" stroke="midnightblue" d="M99.3474,-117.166C109.555,-118.62 120.312,-120.151 130.753,-121.638"/>
<polygon fill="midnightblue" stroke="midnightblue" points="99.749,-113.688 89.3555,-115.744 98.7623,-120.618 99.749,-113.688"/>
</g>
<!-- Node4 -->
<g id="node5" class="node"><title>Node4</title>
<g id="a_node5"><a xlink:href="structtut_1_1_string_parser__common_1_1parser.html" target="_top" xlink:title="tut::StringParser_common\l::parser">
<polygon fill="none" stroke="black" points="125,-74.5 125,-102.5 263,-102.5 263,-74.5 125,-74.5"/>
<text text-anchor="start" x="133" y="-91.3" font-family="sans-serif" font-size="9.00">tut::StringParser_common</text>
<text text-anchor="middle" x="194" y="-81.3" font-family="sans-serif" font-size="9.00">::parser</text>
</a>
</g>
</g>
<!-- Node0&#45;&gt;Node4 -->
<g id="edge4" class="edge"><title>Node0&#45;&gt;Node4</title>
<path fill="none" stroke="midnightblue" d="M99.3224,-101.837C107.669,-100.649 116.384,-99.408 124.994,-98.1822"/>
<polygon fill="midnightblue" stroke="midnightblue" points="98.7623,-98.3815 89.3555,-103.256 99.749,-105.312 98.7623,-98.3815"/>
</g>
<!-- Node5 -->
<g id="node6" class="node"><title>Node5</title>
<g id="a_node6"><a xlink:href="classunittest_1_1_cmd_line_parser.html" target="_top" xlink:title="Command&#45;line parser for UnitTest. ">
<polygon fill="none" stroke="black" points="130,-37.5 130,-55.5 258,-55.5 258,-37.5 130,-37.5"/>
<text text-anchor="middle" x="194" y="-44.3" font-family="sans-serif" font-size="9.00">unittest::CmdLineParser</text>
</a>
</g>
</g>
<!-- Node0&#45;&gt;Node5 -->
<g id="edge5" class="edge"><title>Node0&#45;&gt;Node5</title>
<path fill="none" stroke="midnightblue" d="M68.5069,-94.8843C84.0108,-85.5129 105.176,-73.6251 125,-65.5 134.414,-61.6416 144.871,-58.2879 154.706,-55.5172"/>
<polygon fill="midnightblue" stroke="midnightblue" points="66.3287,-92.1151 59.6477,-100.338 69.9983,-98.0762 66.3287,-92.1151"/>
</g>
<!-- Node6 -->
<g id="node7" class="node"><title>Node6</title>
<g id="a_node7"><a xlink:href="classwalker_1_1_cmd_line_parser.html" target="_top" xlink:title="CmdLineParser : StringParser. ">
<polygon fill="none" stroke="black" points="133,-0.5 133,-18.5 255,-18.5 255,-0.5 133,-0.5"/>
<text text-anchor="middle" x="194" y="-7.3" font-family="sans-serif" font-size="9.00">walker::CmdLineParser</text>
</a>
</g>
</g>
<!-- Node0&#45;&gt;Node6 -->
<g id="edge6" class="edge"><title>Node0&#45;&gt;Node6</title>
<path fill="none" stroke="midnightblue" d="M57.8837,-92.3401C72.0735,-73.9057 97.008,-45.0368 125,-28.5 131.965,-24.3851 139.859,-21.129 147.739,-18.5625"/>
<polygon fill="midnightblue" stroke="midnightblue" points="55.0029,-90.348 51.8145,-100.452 60.6078,-94.5416 55.0029,-90.348"/>
</g>
</g>
</svg>
