<?xml version="1.0" encoding="UTF-8" standalone="no"?>
<!DOCTYPE svg PUBLIC "-//W3C//DTD SVG 1.1//EN"
 "http://www.w3.org/Graphics/SVG/1.1/DTD/svg11.dtd">
<!-- Generated by graphviz version 2.30.1 (20170916.1124)
 -->
<!-- Title: tk::genGeoElemTet Pages: 1 -->
<svg width="298pt" height="63pt"
 viewBox="0.00 0.00 298.00 63.00" xmlns="http://www.w3.org/2000/svg" xmlns:xlink="http://www.w3.org/1999/xlink">
<g id="graph0" class="graph" transform="scale(1 1) rotate(0) translate(4 59)">
<title>tk::genGeoElemTet</title>
<!-- Node48 -->
<g id="node1" class="node"><title>Node48</title>
<polygon fill="#bfbfbf" stroke="black" points="0,-18 0,-36 104,-36 104,-18 0,-18"/>
<text text-anchor="middle" x="52" y="-24.8" font-family="sans-serif" font-size="9.00">tk::genGeoElemTet</text>
</g>
<!-- Node49 -->
<g id="node2" class="node"><title>Node49</title>
<g id="a_node2"><a xlink:href="namespacetk.html#ae5b04b00aa51667b944b7188545ec5ae" target="_top" xlink:title="tk::triple">
<polygon fill="none" stroke="black" points="140,-18 140,-36 196,-36 196,-18 140,-18"/>
<text text-anchor="middle" x="168" y="-24.8" font-family="sans-serif" font-size="9.00">tk::triple</text>
</a>
</g>
</g>
<!-- Node48&#45;&gt;Node49 -->
<g id="edge1" class="edge"><title>Node48&#45;&gt;Node49</title>
<path fill="none" stroke="midnightblue" d="M104.331,-27C112.878,-27 121.597,-27 129.708,-27"/>
<polygon fill="midnightblue" stroke="midnightblue" points="129.957,-30.5001 139.956,-27 129.956,-23.5001 129.957,-30.5001"/>
</g>
<!-- Node50 -->
<g id="node3" class="node"><title>Node50</title>
<g id="a_node3"><a xlink:href="namespacetk.html#aeaca2df70ee950c576f6d74e1eb42caa" target="_top" xlink:title="tk::dot">
<polygon fill="none" stroke="black" points="237.5,-37 237.5,-55 284.5,-55 284.5,-37 237.5,-37"/>
<text text-anchor="middle" x="261" y="-43.8" font-family="sans-serif" font-size="9.00">tk::dot</text>
</a>
</g>
</g>
<!-- Node49&#45;&gt;Node50 -->
<g id="edge2" class="edge"><title>Node49&#45;&gt;Node50</title>
<path fill="none" stroke="midnightblue" d="M196.303,-32.7006C206.119,-34.7502 217.288,-37.0821 227.503,-39.2149"/>
<polygon fill="midnightblue" stroke="midnightblue" points="226.809,-42.6455 237.314,-41.2633 228.24,-35.7933 226.809,-42.6455"/>
</g>
<!-- Node51 -->
<g id="node4" class="node"><title>Node51</title>
<g id="a_node4"><a xlink:href="namespacetk.html#ab602857e33f89cab4cc3788576ab1519" target="_top" xlink:title="tk::cross">
<polygon fill="none" stroke="black" points="232.5,-0 232.5,-18 289.5,-18 289.5,-0 232.5,-0"/>
<text text-anchor="middle" x="261" y="-6.8" font-family="sans-serif" font-size="9.00">tk::cross</text>
</a>
</g>
</g>
<!-- Node49&#45;&gt;Node51 -->
<g id="edge3" class="edge"><title>Node49&#45;&gt;Node51</title>
<path fill="none" stroke="midnightblue" d="M196.303,-21.5994C204.506,-19.9768 213.654,-18.1674 222.4,-16.4374"/>
<polygon fill="midnightblue" stroke="midnightblue" points="223.271,-19.833 232.402,-14.459 221.913,-12.966 223.271,-19.833"/>
</g>
</g>
</svg>
