<?xml version="1.0" encoding="UTF-8" standalone="no"?>
<!DOCTYPE svg PUBLIC "-//W3C//DTD SVG 1.1//EN"
 "http://www.w3.org/Graphics/SVG/1.1/DTD/svg11.dtd">
<!-- Generated by graphviz version 2.30.1 (20140821.0912)
 -->
<!-- Title: inciter::Carrier::setup Pages: 1 -->
<svg width="772pt" height="432pt"
 viewBox="0.00 0.00 772.00 432.00" xmlns="http://www.w3.org/2000/svg" xmlns:xlink="http://www.w3.org/1999/xlink">
<g id="graph0" class="graph" transform="scale(1 1) rotate(0) translate(4 428)">
<title>inciter::Carrier::setup</title>
<!-- Node165 -->
<g id="node1" class="node"><title>Node165</title>
<polygon fill="#bfbfbf" stroke="black" points="0,-136 0,-154 116,-154 116,-136 0,-136"/>
<text text-anchor="middle" x="58" y="-142.8" font-family="sans-serif" font-size="9.00">inciter::Carrier::setup</text>
</g>
<!-- Node166 -->
<g id="node2" class="node"><title>Node166</title>
<g id="a_node2"><a xlink:href="classtk_1_1_tracker.html#a999e420acc4782b98af0305b7acbae6e" target="_top" xlink:title="Generate particles to each of our mesh cells. ">
<polygon fill="none" stroke="black" points="168.5,-261 168.5,-279 273.5,-279 273.5,-261 168.5,-261"/>
<text text-anchor="middle" x="221" y="-267.8" font-family="sans-serif" font-size="9.00">tk::Tracker::genpar</text>
</a>
</g>
</g>
<!-- Node165&#45;&gt;Node166 -->
<g id="edge1" class="edge"><title>Node165&#45;&gt;Node166</title>
<path fill="none" stroke="midnightblue" d="M70.8387,-154.192C98.1702,-175.412 165.92,-228.013 199.897,-254.392"/>
<polygon fill="midnightblue" stroke="midnightblue" points="198.099,-257.427 208.144,-260.795 202.392,-251.898 198.099,-257.427"/>
</g>
<!-- Node171 -->
<g id="node7" class="node"><title>Node171</title>
<g id="a_node7"><a xlink:href="classinciter_1_1_carrier.html#a06bc25d3c6c891d380400f841b467d7f" target="_top" xlink:title="Output chare element blocks to output file. ">
<polygon fill="none" stroke="black" points="152.5,-136 152.5,-154 289.5,-154 289.5,-136 152.5,-136"/>
<text text-anchor="middle" x="221" y="-142.8" font-family="sans-serif" font-size="9.00">inciter::Carrier::writeMesh</text>
</a>
</g>
</g>
<!-- Node165&#45;&gt;Node171 -->
<g id="edge6" class="edge"><title>Node165&#45;&gt;Node171</title>
<path fill="none" stroke="midnightblue" d="M116.216,-145C124.596,-145 133.345,-145 142.053,-145"/>
<polygon fill="midnightblue" stroke="midnightblue" points="142.234,-148.5 152.234,-145 142.234,-141.5 142.234,-148.5"/>
</g>
<!-- Node189 -->
<g id="node25" class="node"><title>Node189</title>
<g id="a_node25"><a xlink:href="classinciter_1_1_carrier.html#aaf55f467eac02a219d9e5ee9bcaedc65" target="_top" xlink:title="Output mesh&#45;based fields metadata to file. ">
<polygon fill="none" stroke="black" points="153.5,-73 153.5,-91 288.5,-91 288.5,-73 153.5,-73"/>
<text text-anchor="middle" x="221" y="-79.8" font-family="sans-serif" font-size="9.00">inciter::Carrier::writeMeta</text>
</a>
</g>
</g>
<!-- Node165&#45;&gt;Node189 -->
<g id="edge24" class="edge"><title>Node165&#45;&gt;Node189</title>
<path fill="none" stroke="midnightblue" d="M82.0674,-135.974C109.685,-125.167 156.12,-106.997 187.396,-94.758"/>
<polygon fill="midnightblue" stroke="midnightblue" points="188.938,-97.913 196.975,-91.0096 186.388,-91.3943 188.938,-97.913"/>
</g>
<!-- Node167 -->
<g id="node3" class="node"><title>Node167</title>
<g id="a_node3"><a xlink:href="namespacetk.html#afd730d099e698f124362ef8c01483e0f" target="_top" xlink:title="tk::min">
<polygon fill="none" stroke="black" points="363,-350 363,-368 411,-368 411,-350 363,-350"/>
<text text-anchor="middle" x="387" y="-356.8" font-family="sans-serif" font-size="9.00">tk::min</text>
</a>
</g>
</g>
<!-- Node166&#45;&gt;Node167 -->
<g id="edge2" class="edge"><title>Node166&#45;&gt;Node167</title>
<path fill="none" stroke="midnightblue" d="M238.628,-279.024C267.359,-294.616 326.477,-326.698 360.457,-345.138"/>
<polygon fill="midnightblue" stroke="midnightblue" points="358.87,-348.259 369.328,-349.953 362.209,-342.107 358.87,-348.259"/>
</g>
<!-- Node168 -->
<g id="node4" class="node"><title>Node168</title>
<g id="a_node4"><a xlink:href="classtk_1_1_data.html#a0e41c2b27307c6338b5a3dab688f8e80" target="_top" xlink:title="tk::Data::nunk">
<polygon fill="none" stroke="black" points="503.5,-406 503.5,-424 586.5,-424 586.5,-406 503.5,-406"/>
<text text-anchor="middle" x="545" y="-412.8" font-family="sans-serif" font-size="9.00">tk::Data::nunk</text>
</a>
</g>
</g>
<!-- Node167&#45;&gt;Node168 -->
<g id="edge3" class="edge"><title>Node167&#45;&gt;Node168</title>
<path fill="none" stroke="midnightblue" d="M410.357,-368.063C429.722,-375.806 458.548,-387.075 484,-396 490.581,-398.308 497.611,-400.646 504.455,-402.856"/>
<polygon fill="midnightblue" stroke="midnightblue" points="503.688,-406.285 514.278,-405.983 505.811,-399.614 503.688,-406.285"/>
</g>
<!-- Node169 -->
<g id="node5" class="node"><title>Node169</title>
<g id="a_node5"><a xlink:href="classtk_1_1_data.html#ac8de429b794cc8700738afe2fd68d7d4" target="_top" xlink:title="tk::Data::nprop">
<polygon fill="none" stroke="black" points="501,-369 501,-387 589,-387 589,-369 501,-369"/>
<text text-anchor="middle" x="545" y="-375.8" font-family="sans-serif" font-size="9.00">tk::Data::nprop</text>
</a>
</g>
</g>
<!-- Node167&#45;&gt;Node169 -->
<g id="edge4" class="edge"><title>Node167&#45;&gt;Node169</title>
<path fill="none" stroke="midnightblue" d="M411.018,-361.804C431.911,-364.348 463.511,-368.197 490.666,-371.504"/>
<polygon fill="midnightblue" stroke="midnightblue" points="490.474,-375.007 500.824,-372.741 491.32,-368.058 490.474,-375.007"/>
</g>
<!-- Node170 -->
<g id="node6" class="node"><title>Node170</title>
<g id="a_node6"><a xlink:href="classtk_1_1_data.html#aef8c7ba846481dfd2d6576ac9f2394b7" target="_top" xlink:title="tk::Data::data">
<polygon fill="none" stroke="black" points="504,-332 504,-350 586,-350 586,-332 504,-332"/>
<text text-anchor="middle" x="545" y="-338.8" font-family="sans-serif" font-size="9.00">tk::Data::data</text>
</a>
</g>
</g>
<!-- Node167&#45;&gt;Node170 -->
<g id="edge5" class="edge"><title>Node167&#45;&gt;Node170</title>
<path fill="none" stroke="midnightblue" d="M411.018,-356.344C432.758,-353.836 466.091,-349.99 493.945,-346.776"/>
<polygon fill="midnightblue" stroke="midnightblue" points="494.395,-350.247 503.927,-345.624 493.592,-343.293 494.395,-350.247"/>
</g>
<!-- Node172 -->
<g id="node8" class="node"><title>Node172</title>
<g id="a_node8"><a xlink:href="classtk_1_1_control.html#a85c14acef1b9de96946fcf2ab7c08721" target="_top" xlink:title="Const&#45;ref accessor to single element at 1st level. ">
<polygon fill="none" stroke="black" points="343.5,-94 343.5,-112 430.5,-112 430.5,-94 343.5,-94"/>
<text text-anchor="middle" x="387" y="-100.8" font-family="sans-serif" font-size="9.00">tk::Control::get</text>
</a>
</g>
</g>
<!-- Node171&#45;&gt;Node172 -->
<g id="edge7" class="edge"><title>Node171&#45;&gt;Node172</title>
<path fill="none" stroke="midnightblue" d="M257.182,-135.99C281.635,-129.728 314.441,-121.326 340.826,-114.569"/>
<polygon fill="midnightblue" stroke="midnightblue" points="341.774,-117.939 350.593,-112.068 340.038,-111.158 341.774,-117.939"/>
</g>
<!-- Node173 -->
<g id="node9" class="node"><title>Node173</title>
<g id="a_node9"><a xlink:href="classtk_1_1_root_mesh_writer.html#ad5fdcb97f791add096d4ea10de65c20c" target="_top" xlink:title="Write Root mesh to file. ">
<polygon fill="none" stroke="black" points="335,-201 335,-229 439,-229 439,-201 335,-201"/>
<text text-anchor="start" x="343" y="-217.8" font-family="sans-serif" font-size="9.00">tk::RootMeshWriter</text>
<text text-anchor="middle" x="387" y="-207.8" font-family="sans-serif" font-size="9.00">::writeMesh</text>
</a>
</g>
</g>
<!-- Node171&#45;&gt;Node173 -->
<g id="edge8" class="edge"><title>Node171&#45;&gt;Node173</title>
<path fill="none" stroke="midnightblue" d="M243.104,-154.008C268.458,-164.83 311.606,-183.246 343.87,-197.018"/>
<polygon fill="midnightblue" stroke="midnightblue" points="342.507,-200.242 353.079,-200.948 345.255,-193.803 342.507,-200.242"/>
</g>
<!-- Node184 -->
<g id="node20" class="node"><title>Node184</title>
<g id="a_node20"><a xlink:href="classtk_1_1_exodus_i_i_mesh_writer.html#af69295fe7bd7c81490e6a933aed4e532" target="_top" xlink:title="Write ExodusII mesh to file. ">
<polygon fill="none" stroke="black" points="326,-131 326,-159 448,-159 448,-131 326,-131"/>
<text text-anchor="start" x="334" y="-147.8" font-family="sans-serif" font-size="9.00">tk::ExodusIIMeshWriter</text>
<text text-anchor="middle" x="387" y="-137.8" font-family="sans-serif" font-size="9.00">::writeMesh</text>
</a>
</g>
</g>
<!-- Node171&#45;&gt;Node184 -->
<g id="edge19" class="edge"><title>Node171&#45;&gt;Node184</title>
<path fill="none" stroke="midnightblue" d="M289.652,-145C298.277,-145 307.12,-145 315.784,-145"/>
<polygon fill="midnightblue" stroke="midnightblue" points="315.849,-148.5 325.849,-145 315.849,-141.5 315.849,-148.5"/>
</g>
<!-- Node174 -->
<g id="node10" class="node"><title>Node174</title>
<g id="a_node10"><a xlink:href="classtk_1_1_root_mesh_writer.html#a129f5cd877ee2863e468dd424e6e6cc8" target="_top" xlink:title="Write Root header. ">
<polygon fill="none" stroke="black" points="493,-285 493,-313 597,-313 597,-285 493,-285"/>
<text text-anchor="start" x="501" y="-301.8" font-family="sans-serif" font-size="9.00">tk::RootMeshWriter</text>
<text text-anchor="middle" x="545" y="-291.8" font-family="sans-serif" font-size="9.00">::writeHeader</text>
</a>
</g>
</g>
<!-- Node173&#45;&gt;Node174 -->
<g id="edge9" class="edge"><title>Node173&#45;&gt;Node174</title>
<path fill="none" stroke="midnightblue" d="M414.111,-229.06C440.095,-243.051 480.141,-264.614 508.896,-280.098"/>
<polygon fill="midnightblue" stroke="midnightblue" points="507.34,-283.235 517.804,-284.894 510.659,-277.072 507.34,-283.235"/>
</g>
<!-- Node178 -->
<g id="node14" class="node"><title>Node178</title>
<g id="a_node14"><a xlink:href="classtk_1_1_root_mesh_writer.html#a823879a95527703036bed1c965c5125d" target="_top" xlink:title="Write nodes coordinates. ">
<polygon fill="none" stroke="black" points="493,-225 493,-253 597,-253 597,-225 493,-225"/>
<text text-anchor="start" x="501" y="-241.8" font-family="sans-serif" font-size="9.00">tk::RootMeshWriter</text>
<text text-anchor="middle" x="545" y="-231.8" font-family="sans-serif" font-size="9.00">::writeNodes</text>
</a>
</g>
</g>
<!-- Node173&#45;&gt;Node178 -->
<g id="edge13" class="edge"><title>Node173&#45;&gt;Node178</title>
<path fill="none" stroke="midnightblue" d="M439.08,-222.858C453.087,-225.013 468.413,-227.371 482.92,-229.603"/>
<polygon fill="midnightblue" stroke="midnightblue" points="482.389,-233.062 492.805,-231.124 483.454,-226.144 482.389,-233.062"/>
</g>
<!-- Node182 -->
<g id="node18" class="node"><title>Node182</title>
<g id="a_node18"><a xlink:href="classtk_1_1_root_mesh_writer.html#a011043eb0b377e68462e41307604b220" target="_top" xlink:title="Write element conectivity to ROOT file. ">
<polygon fill="none" stroke="black" points="493,-178 493,-206 597,-206 597,-178 493,-178"/>
<text text-anchor="start" x="501" y="-194.8" font-family="sans-serif" font-size="9.00">tk::RootMeshWriter</text>
<text text-anchor="middle" x="545" y="-184.8" font-family="sans-serif" font-size="9.00">::writeElements</text>
</a>
</g>
</g>
<!-- Node173&#45;&gt;Node182 -->
<g id="edge17" class="edge"><title>Node173&#45;&gt;Node182</title>
<path fill="none" stroke="midnightblue" d="M439.08,-207.469C452.952,-205.424 468.119,-203.188 482.501,-201.067"/>
<polygon fill="midnightblue" stroke="midnightblue" points="483.422,-204.469 492.805,-199.548 482.401,-197.544 483.422,-204.469"/>
</g>
<!-- Node175 -->
<g id="node11" class="node"><title>Node175</title>
<g id="a_node11"><a xlink:href="classtk_1_1_uns_mesh.html#aa271a359fbefbf064b0df8fdfed43f6e" target="_top" xlink:title="tk::UnsMesh::size">
<polygon fill="none" stroke="black" points="654,-364 654,-382 752,-382 752,-364 654,-364"/>
<text text-anchor="middle" x="703" y="-370.8" font-family="sans-serif" font-size="9.00">tk::UnsMesh::size</text>
</a>
</g>
</g>
<!-- Node174&#45;&gt;Node175 -->
<g id="edge10" class="edge"><title>Node174&#45;&gt;Node175</title>
<path fill="none" stroke="midnightblue" d="M586.586,-313.1C593.257,-316.015 599.959,-319.332 606,-323 624.048,-333.959 623.56,-343.715 642,-354 646.249,-356.37 650.836,-358.491 655.514,-360.377"/>
<polygon fill="midnightblue" stroke="midnightblue" points="654.571,-363.759 665.165,-363.923 656.986,-357.189 654.571,-363.759"/>
</g>
<!-- Node176 -->
<g id="node12" class="node"><title>Node176</title>
<g id="a_node12"><a xlink:href="classtk_1_1_uns_mesh.html#add64317e28f878c1c7c7ac18aebf1d20" target="_top" xlink:title="tk::UnsMesh::tetinpoel">
<polygon fill="none" stroke="black" points="642,-327 642,-345 764,-345 764,-327 642,-327"/>
<text text-anchor="middle" x="703" y="-333.8" font-family="sans-serif" font-size="9.00">tk::UnsMesh::tetinpoel</text>
</a>
</g>
</g>
<!-- Node174&#45;&gt;Node176 -->
<g id="edge11" class="edge"><title>Node174&#45;&gt;Node176</title>
<path fill="none" stroke="midnightblue" d="M597.08,-311.115C615.29,-315.434 635.73,-320.282 653.698,-324.544"/>
<polygon fill="midnightblue" stroke="midnightblue" points="653.138,-328.008 663.676,-326.91 654.753,-321.197 653.138,-328.008"/>
</g>
<!-- Node177 -->
<g id="node13" class="node"><title>Node177</title>
<g id="a_node13"><a xlink:href="classtk_1_1_uns_mesh.html#a939ed051a032233365bf9f61121a2e6c" target="_top" xlink:title="tk::UnsMesh::triinpoel">
<polygon fill="none" stroke="black" points="643.5,-290 643.5,-308 762.5,-308 762.5,-290 643.5,-290"/>
<text text-anchor="middle" x="703" y="-296.8" font-family="sans-serif" font-size="9.00">tk::UnsMesh::triinpoel</text>
</a>
</g>
</g>
<!-- Node174&#45;&gt;Node177 -->
<g id="edge12" class="edge"><title>Node174&#45;&gt;Node177</title>
<path fill="none" stroke="midnightblue" d="M597.08,-299C608.674,-299 621.171,-299 633.36,-299"/>
<polygon fill="midnightblue" stroke="midnightblue" points="633.499,-302.5 643.499,-299 633.499,-295.5 633.499,-302.5"/>
</g>
<!-- Node179 -->
<g id="node15" class="node"><title>Node179</title>
<g id="a_node15"><a xlink:href="classtk_1_1_uns_mesh.html#aff07f35eda64811a07230d5e2648d36d" target="_top" xlink:title="tk::UnsMesh::x">
<polygon fill="none" stroke="black" points="660.5,-253 660.5,-271 745.5,-271 745.5,-253 660.5,-253"/>
<text text-anchor="middle" x="703" y="-259.8" font-family="sans-serif" font-size="9.00">tk::UnsMesh::x</text>
</a>
</g>
</g>
<!-- Node178&#45;&gt;Node179 -->
<g id="edge14" class="edge"><title>Node178&#45;&gt;Node179</title>
<path fill="none" stroke="midnightblue" d="M597.08,-246.531C614.079,-249.037 633.022,-251.83 650.083,-254.346"/>
<polygon fill="midnightblue" stroke="midnightblue" points="650.025,-257.875 660.429,-255.871 651.046,-250.95 650.025,-257.875"/>
</g>
<!-- Node180 -->
<g id="node16" class="node"><title>Node180</title>
<g id="a_node16"><a xlink:href="classtk_1_1_uns_mesh.html#a28339e2ce28f359a2db149fe4dde3570" target="_top" xlink:title="tk::UnsMesh::y">
<polygon fill="none" stroke="black" points="660.5,-216 660.5,-234 745.5,-234 745.5,-216 660.5,-216"/>
<text text-anchor="middle" x="703" y="-222.8" font-family="sans-serif" font-size="9.00">tk::UnsMesh::y</text>
</a>
</g>
</g>
<!-- Node178&#45;&gt;Node180 -->
<g id="edge15" class="edge"><title>Node178&#45;&gt;Node180</title>
<path fill="none" stroke="midnightblue" d="M597.08,-234.416C614.079,-232.89 633.022,-231.19 650.083,-229.659"/>
<polygon fill="midnightblue" stroke="midnightblue" points="650.781,-233.111 660.429,-228.731 650.156,-226.139 650.781,-233.111"/>
</g>
<!-- Node181 -->
<g id="node17" class="node"><title>Node181</title>
<g id="a_node17"><a xlink:href="classtk_1_1_uns_mesh.html#a8cde5e0b95ab78c3df9ab299311f3631" target="_top" xlink:title="tk::UnsMesh::z">
<polygon fill="none" stroke="black" points="661,-179 661,-197 745,-197 745,-179 661,-179"/>
<text text-anchor="middle" x="703" y="-185.8" font-family="sans-serif" font-size="9.00">tk::UnsMesh::z</text>
</a>
</g>
</g>
<!-- Node178&#45;&gt;Node181 -->
<g id="edge16" class="edge"><title>Node178&#45;&gt;Node181</title>
<path fill="none" stroke="midnightblue" d="M588.012,-224.844C604.786,-219.231 624.289,-212.756 642,-207 648.772,-204.799 655.985,-202.487 662.975,-200.264"/>
<polygon fill="midnightblue" stroke="midnightblue" points="664.505,-203.451 672.98,-197.093 662.39,-196.778 664.505,-203.451"/>
</g>
<!-- Node183 -->
<g id="node19" class="node"><title>Node183</title>
<g id="a_node19"><a xlink:href="classtk_1_1_root_mesh_writer.html#a8857741f8086abf859ad1411e8b27e4d" target="_top" xlink:title="Write element block to ROOT file. ">
<polygon fill="none" stroke="black" points="651,-132 651,-160 755,-160 755,-132 651,-132"/>
<text text-anchor="start" x="659" y="-148.8" font-family="sans-serif" font-size="9.00">tk::RootMeshWriter</text>
<text text-anchor="middle" x="703" y="-138.8" font-family="sans-serif" font-size="9.00">::writeElemBlock</text>
</a>
</g>
</g>
<!-- Node182&#45;&gt;Node183 -->
<g id="edge18" class="edge"><title>Node182&#45;&gt;Node183</title>
<path fill="none" stroke="midnightblue" d="M593.653,-177.949C609.757,-173.2 627.906,-167.848 644.679,-162.902"/>
<polygon fill="midnightblue" stroke="midnightblue" points="645.769,-166.23 654.37,-160.045 643.789,-159.516 645.769,-166.23"/>
</g>
<!-- Node185 -->
<g id="node21" class="node"><title>Node185</title>
<g id="a_node21"><a xlink:href="classtk_1_1_exodus_i_i_mesh_writer.html#aa485a7aa9516615099754f937470ec7b" target="_top" xlink:title="Write header without mesh, function overloading. ">
<polygon fill="none" stroke="black" points="484,-131 484,-159 606,-159 606,-131 484,-131"/>
<text text-anchor="start" x="492" y="-147.8" font-family="sans-serif" font-size="9.00">tk::ExodusIIMeshWriter</text>
<text text-anchor="middle" x="545" y="-137.8" font-family="sans-serif" font-size="9.00">::writeHeader</text>
</a>
</g>
</g>
<!-- Node184&#45;&gt;Node185 -->
<g id="edge20" class="edge"><title>Node184&#45;&gt;Node185</title>
<path fill="none" stroke="midnightblue" d="M448.314,-145C456.604,-145 465.175,-145 473.626,-145"/>
<polygon fill="midnightblue" stroke="midnightblue" points="473.847,-148.5 483.847,-145 473.847,-141.5 473.847,-148.5"/>
</g>
<!-- Node186 -->
<g id="node22" class="node"><title>Node186</title>
<g id="a_node22"><a xlink:href="classtk_1_1_exodus_i_i_mesh_writer.html#adb94bc4e7ad4febe76f9668f601141d3" target="_top" xlink:title="Write nodes without mesh, function overloading. ">
<polygon fill="none" stroke="black" points="484,-84 484,-112 606,-112 606,-84 484,-84"/>
<text text-anchor="start" x="492" y="-100.8" font-family="sans-serif" font-size="9.00">tk::ExodusIIMeshWriter</text>
<text text-anchor="middle" x="545" y="-90.8" font-family="sans-serif" font-size="9.00">::writeNodes</text>
</a>
</g>
</g>
<!-- Node184&#45;&gt;Node186 -->
<g id="edge21" class="edge"><title>Node184&#45;&gt;Node186</title>
<path fill="none" stroke="midnightblue" d="M434.805,-130.898C451.385,-125.903 470.217,-120.23 487.517,-115.017"/>
<polygon fill="midnightblue" stroke="midnightblue" points="488.932,-118.247 497.497,-112.011 486.912,-111.544 488.932,-118.247"/>
</g>
<!-- Node187 -->
<g id="node23" class="node"><title>Node187</title>
<g id="a_node23"><a xlink:href="classtk_1_1_exodus_i_i_mesh_writer.html#a73706e33e0dfaba02f83857884486d8e" target="_top" xlink:title="Write element conectivity to ExodusII file. ">
<polygon fill="none" stroke="black" points="484,-37 484,-65 606,-65 606,-37 484,-37"/>
<text text-anchor="start" x="492" y="-53.8" font-family="sans-serif" font-size="9.00">tk::ExodusIIMeshWriter</text>
<text text-anchor="middle" x="545" y="-43.8" font-family="sans-serif" font-size="9.00">::writeElements</text>
</a>
</g>
</g>
<!-- Node184&#45;&gt;Node187 -->
<g id="edge22" class="edge"><title>Node184&#45;&gt;Node187</title>
<path fill="none" stroke="midnightblue" d="M431.128,-130.996C437.073,-128.156 442.885,-124.838 448,-121 468.767,-105.421 463.233,-90.5793 484,-75 486.478,-73.1412 489.119,-71.4041 491.86,-69.7842"/>
<polygon fill="midnightblue" stroke="midnightblue" points="493.678,-72.7816 500.872,-65.0037 490.398,-66.5977 493.678,-72.7816"/>
</g>
<!-- Node188 -->
<g id="node24" class="node"><title>Node188</title>
<g id="a_node24"><a xlink:href="classtk_1_1_exodus_i_i_mesh_writer.html#a892ba7500a2cf16ed39dd1402cdc4ed4" target="_top" xlink:title="Write element block to ExodusII file. ">
<polygon fill="none" stroke="black" points="642,-37 642,-65 764,-65 764,-37 642,-37"/>
<text text-anchor="start" x="650" y="-53.8" font-family="sans-serif" font-size="9.00">tk::ExodusIIMeshWriter</text>
<text text-anchor="middle" x="703" y="-43.8" font-family="sans-serif" font-size="9.00">::writeElemBlock</text>
</a>
</g>
</g>
<!-- Node187&#45;&gt;Node188 -->
<g id="edge23" class="edge"><title>Node187&#45;&gt;Node188</title>
<path fill="none" stroke="midnightblue" d="M606.314,-51C614.604,-51 623.175,-51 631.626,-51"/>
<polygon fill="midnightblue" stroke="midnightblue" points="631.847,-54.5001 641.847,-51 631.847,-47.5001 631.847,-54.5001"/>
</g>
<!-- Node189&#45;&gt;Node172 -->
<g id="edge25" class="edge"><title>Node189&#45;&gt;Node172</title>
<path fill="none" stroke="midnightblue" d="M288.705,-90.5415C303.548,-92.4421 319.084,-94.4315 333.274,-96.2485"/>
<polygon fill="midnightblue" stroke="midnightblue" points="332.975,-99.7388 343.339,-97.5373 333.865,-92.7955 332.975,-99.7388"/>
</g>
<!-- Node190 -->
<g id="node26" class="node"><title>Node190</title>
<g id="a_node26"><a xlink:href="classtk_1_1_root_mesh_writer.html#a947807db07cce418f3fa148162dcea9d" target="_top" xlink:title="Write the names of nodal output variables to Root file. ">
<polygon fill="none" stroke="black" points="328.5,-47 328.5,-75 445.5,-75 445.5,-47 328.5,-47"/>
<text text-anchor="start" x="336.5" y="-63.8" font-family="sans-serif" font-size="9.00">tk::RootMeshWriter</text>
<text text-anchor="middle" x="387" y="-53.8" font-family="sans-serif" font-size="9.00">::writeNodeVarNames</text>
</a>
</g>
</g>
<!-- Node189&#45;&gt;Node190 -->
<g id="edge26" class="edge"><title>Node189&#45;&gt;Node190</title>
<path fill="none" stroke="midnightblue" d="M288.705,-73.4585C298.446,-72.2112 308.486,-70.9256 318.247,-69.6757"/>
<polygon fill="midnightblue" stroke="midnightblue" points="318.821,-73.1309 328.295,-68.389 317.931,-66.1876 318.821,-73.1309"/>
</g>
<!-- Node191 -->
<g id="node27" class="node"><title>Node191</title>
<g id="a_node27"><a xlink:href="classtk_1_1_exodus_i_i_mesh_writer.html#ad173db17de8f55bce5b3a3f76d1c959e" target="_top" xlink:title="Write the names of nodal output variables to ExodusII file. ">
<polygon fill="none" stroke="black" points="326,-0 326,-28 448,-28 448,-0 326,-0"/>
<text text-anchor="start" x="334" y="-16.8" font-family="sans-serif" font-size="9.00">tk::ExodusIIMeshWriter</text>
<text text-anchor="middle" x="387" y="-6.8" font-family="sans-serif" font-size="9.00">::writeNodeVarNames</text>
</a>
</g>
</g>
<!-- Node189&#45;&gt;Node191 -->
<g id="edge27" class="edge"><title>Node189&#45;&gt;Node191</title>
<path fill="none" stroke="midnightblue" d="M242.219,-72.9496C263.098,-63.6754 296.671,-48.9604 326,-37 330.18,-35.2952 334.538,-33.5547 338.914,-31.8323"/>
<polygon fill="midnightblue" stroke="midnightblue" points="340.411,-35.0052 348.456,-28.1116 337.868,-28.4834 340.411,-35.0052"/>
</g>
</g>
</svg>
